<?xml version="1.0" encoding="UTF-8" standalone="no"?>
<svg
   xmlns:dc="http://purl.org/dc/elements/1.1/"
   xmlns:cc="http://creativecommons.org/ns#"
   xmlns:rdf="http://www.w3.org/1999/02/22-rdf-syntax-ns#"
   xmlns:svg="http://www.w3.org/2000/svg"
   xmlns="http://www.w3.org/2000/svg"
   xmlns:sodipodi="http://sodipodi.sourceforge.net/DTD/sodipodi-0.dtd"
   xmlns:inkscape="http://www.inkscape.org/namespaces/inkscape"
   width="166.55479"
   height="166.51344"
   viewBox="-0.2 0 999.32875 999.08067"
   version="1.1"
   id="svg218"
   sodipodi:docname="avatar.svg"
   inkscape:version="0.92.2 (5c3e80d, 2017-08-06)"
   inkscape:export-filename="/home/alec.larsen/Desktop/alec.svg.png"
   inkscape:export-xdpi="96"
   inkscape:export-ydpi="96">
  <metadata
     id="metadata224">
    <rdf:RDF>
      <cc:Work
         rdf:about="">
        <dc:format>image/svg+xml</dc:format>
        <dc:type
           rdf:resource="http://purl.org/dc/dcmitype/StillImage" />
        <dc:title />
      </cc:Work>
    </rdf:RDF>
  </metadata>
  <defs
     id="defs222" />
  <sodipodi:namedview
     pagecolor="#ffffff"
     bordercolor="#666666"
     borderopacity="1"
     objecttolerance="10"
     gridtolerance="10"
     guidetolerance="10"
     inkscape:pageopacity="0"
     inkscape:pageshadow="2"
     inkscape:window-width="3840"
     inkscape:window-height="2105"
     id="namedview220"
     showgrid="false"
     inkscape:zoom="2"
     inkscape:cx="-5.175674"
     inkscape:cy="101.55714"
     inkscape:window-x="0"
     inkscape:window-y="55"
     inkscape:window-maximized="1"
     inkscape:current-layer="svg218"
     fit-margin-top="0"
     fit-margin-left="0"
     fit-margin-right="0"
     fit-margin-bottom="0"
     scale-x="5"
     viewbox-width="1000"
     viewbox-x="-0.2" />
  <g
     id="g5543"
     transform="matrix(0.9101708,0,0,0.9101708,873.34564,329.89402)">
    <path
       id="path10"
       d="m -544.49524,-252.21961 c 7.1,-11.64 14.16,-23.35 20.11,-35.63 -5.46,13.83 -11.08,27.63 -17.78,40.9 4.63,-4.9 9.85,-9.43 16.25,-11.82 6.55,-2.89 13.87,-2.64 20.72,-4.41 16.24,-3.99 31.53,-11.21 47.93,-14.6 7.22,-1.58 14.64,-0.81 21.91,-0.05 4.75,0.67 9.55,0.79 14.31,1.38 -5.93,0.44 -11.99,0.73 -17.48,3.25 -8.13,2.66 -14.58,8.85 -22.93,10.92 -2.59,0.69 -5.21,1.3 -7.79,2.01 6.36,0.74 12.35,-1.67 18.51,-2.74 -8.64,5.56 -18.49,9.26 -28.67,10.72 13.48,2.52 26.21,-4.28 38.18,-9.51 -13.22,9.74 -29.67,14.27 -45.88,15.44 13.85,1.01 27.64,-2.27 40.54,-7.06 4.98,-1.83 9.56,-4.55 14.52,-6.44 -4.33,3.69 -9.52,6.13 -14.7,8.39 -12.89,5.44 -26.66,8.53 -40.53,10.18 -11.91,1.5 -24.29,4.12 -34.14,11.35 3.49,-0.77 6.88,-1.95 10.38,-2.71 11.8,-2.29 23.91,-1.71 35.83,-0.84 12.17,0.54 23.03,-5.62 33.59,-10.79 -1.44,1.53 -2.93,3.02 -4.67,4.2 -10.22,7.03 -21.48,12.89 -33.71,15.41 -5.67,1.33 -11.51,1.16 -17.28,1.32 9.1,2.44 18.77,2.03 27.92,0.04 5.06,-1.08 9.72,-3.43 14.72,-4.73 -1.46,1.12 -2.95,2.22 -4.6,3.04 -11.45,5.52 -24.22,8.48 -36.96,7.77 -5.9,0.07 -11.53,-1.84 -17.34,-2.49 12.94,7.47 28.73,8.21 43.26,6.38 19.92,-2.74 38.6,-10.72 56.77,-18.97 10.48,-4.44 20.72,-10.57 32.37,-11.06 12.04,-0.62 24.32,1.91 35.14,7.24 -6.11,-0.76 -12.05,-2.65 -18.23,-2.87 -21.55,-1.51 -42.39,6.19 -61.36,15.65 -11.63,5.32 -22.81,12.04 -35.45,14.73 -5.75,1.46 -11.72,1.31 -17.56,2.1 5.7,1.43 11.63,1.03 17.45,0.85 9.43,-0.52 18.82,-1.93 27.98,-4.25 8.4,-2.05 16.44,-5.48 25.05,-6.69 10.93,-1.6 22.13,-2.37 33.1,-0.69 -6.59,0.79 -13.26,0.69 -19.81,1.79 -16.04,2.41 -32.2,6.94 -45.68,16.27 -7.7,5.15 -16.49,8.88 -25.74,9.95 -4.36,0.35 -8.76,0.09 -13.1,0.66 8.79,2.41 18.15,1.77 27.05,0.28 7.22,-1.18 14,-4.05 21.16,-5.48 -11.54,5.69 -24.27,9.04 -37.06,10.21 -7.85,0.83 -15.55,-1.02 -23.02,-3.16 9.48,6.1 21.28,6.4 32.12,4.97 15.49,-2.54 30.12,-8.73 43.87,-16.15 9.42,-5.07 19.58,-8.81 30.11,-10.77 4.42,-0.76 8.97,-2.03 13.44,-0.87 -11.93,2.28 -23.77,5.8 -34.37,11.84 -10.01,6.28 -19.85,12.85 -29.91,19.05 -8.79,5.36 -18.88,8.87 -29.24,8.99 -4.87,0.06 -9.58,-1.35 -14.36,-2.03 8.19,6 18.98,6.39 28.7,5.18 9.02,-1.44 18,-4.3 25.65,-9.41 12.57,-8.63 25.75,-16.66 40.15,-21.87 19.11,-6.04 39.92,-2.64 58.22,4.59 6.58,2.82 13.44,5.34 19.2,9.66 -2.47,-0.66 -4.89,-1.5 -7.23,-2.52 -20.66,-8.71 -44.15,-10.74 -65.95,-5.35 -6.01,1.52 -12.08,3.16 -17.51,6.25 5.46,-0.91 10.67,-2.92 16.14,-3.76 19.49,-3.3 39.77,-0.38 58.03,6.99 4.84,1.97 9.81,3.81 14.12,6.83 -5.4,-1.51 -10.54,-3.91 -16.07,-4.96 -21.86,-4.5 -44.81,-1.24 -65.49,6.7 -9.21,3.37 -17.25,9.21 -26.4,12.72 -8.7,3.39 -17.89,5.42 -27.16,6.39 6.97,-2.37 14.15,-4.32 20.6,-7.99 6.81,-3.83 13.83,-7.54 19.64,-12.83 -3.16,1.12 -6.08,2.78 -8.99,4.41 -16.57,8.5 -35.56,13.86 -54.25,10.72 -16.94,-2.9 -31.94,-13.19 -42.41,-26.59 -3.74,-4.47 -6.5,-9.62 -9.7,-14.45 3.53,14.56 13.18,26.71 23.25,37.43 -4.45,-1.84 -7.74,-5.42 -11.49,-8.29 3.13,4.84 7.39,8.78 11.49,12.77 13.3,12.58 30.38,21.81 48.82,23.37 8.79,0.61 17.86,0.21 26.18,-2.91 -6.73,0.28 -13.44,1.74 -20.2,0.85 -11.32,-1.26 -22.74,-5.38 -31.22,-13.18 5.64,2.31 11.07,5.24 17.14,6.33 19.97,4.19 41.1,1.88 60.12,-5.29 11.22,-4.08 23.21,-5.2 35.03,-6.02 3.05,-0.27 6.13,-0.07 9.16,0.4 -20.74,1.82 -40.86,8.15 -59.41,17.48 -12.25,6.38 -25.87,10.5 -39.75,10.63 -5.1,0.1 -10.14,-0.8 -15.2,-1.14 11.64,4.99 24.84,4.88 37.13,2.68 5.6,-0.84 10.83,-3.19 16.43,-4.02 -12.69,7.29 -27.8,10.99 -42.42,9.08 -12.97,-1.84 -24.43,-9.39 -33.25,-18.81 -6.91,-7.2 -12.07,-15.86 -18.96,-23.07 -5.64,-5.82 -11.48,-11.53 -18.1,-16.24 8.49,11.38 17.47,22.62 23.75,35.42 -8.86,-8.78 -16.62,-19.02 -27.41,-25.62 7.34,8.2 14.11,16.91 19.93,26.27 2.86,4.79 6.35,9.26 8.35,14.52 -2.81,-2.53 -4.84,-5.73 -7.03,-8.77 -9.05,-12.12 -18.9,-23.74 -30.35,-33.68 -1.59,-1.35 -3.35,-2.46 -5.14,-3.5 5.09,6.09 10.93,11.54 15.66,17.96 4.39,5.87 9.29,11.45 12.75,17.95 -3.71,-2.44 -6.69,-5.77 -10.09,-8.59 -9.94,-8.25 -20.98,-15.33 -33.1,-19.9 -1.75,-0.6 -3.59,-0.9 -5.4,-1.24 7.53,4.59 15.91,8.14 22.12,14.61 -6.34,-1.41 -12.51,-3.75 -19.06,-4.01 7.82,6.7 17.16,11.54 24.63,18.71 -5.53,-1.25 -10.52,-4.06 -15.36,-6.93 -12.02,-7.32 -22.17,-17.32 -31.01,-28.19 0.81,6.46 3.23,12.55 5.57,18.58 7.86,20.18 22.01,38.54 41.5,48.61 7.56,3.81 15.61,7.24 24.15,7.86 -12.04,-4.86 -22.83,-13.21 -29.7,-24.31 9.83,2.61 18.38,8.51 25.84,15.25 -3.67,-6.23 -9.4,-10.9 -15.14,-15.13 -7.08,-5.24 -15.84,-7.63 -22.67,-13.24 -6.65,-5.35 -12.39,-11.96 -16.43,-19.49 8.19,9.81 19.16,16.78 30.56,22.31 6.46,3.33 13.36,5.72 19.8,9.1 3.86,1.98 7.31,4.65 11.12,6.72 -3.1,-4.69 -7.34,-8.45 -11.2,-12.48 -8.91,-9 -18.81,-17.21 -30.31,-22.7 5.03,0.9 9.47,3.52 13.65,6.32 13.83,9.14 26.35,20.25 37.29,32.69 11.48,11.97 27.62,18.68 43.97,20.32 11.37,1 22.98,0.76 34.11,-2.01 -11.04,1.08 -22.34,1.8 -33.2,-1.02 -14.49,-3.6 -28.16,-11.87 -36.89,-24.14 4.05,3.62 7.8,7.64 12.46,10.51 14.54,9.55 32.64,11.76 49.66,10.45 11.23,-1.06 22.49,-2.97 33.09,-6.93 -6.13,0.6 -12.07,2.38 -18.18,3.08 -16.67,2.34 -34.37,0.97 -49.57,-6.71 -4.8,-2.61 -9.68,-5.5 -13.04,-9.92 5.41,2.4 10.73,5.26 16.68,6.07 15.28,2.37 30.82,-1.26 45.09,-6.65 6.77,-2.59 13.46,-5.49 19.57,-9.44 17.4,-11.22 39.3,-13.53 59.38,-10.09 -8.47,0.32 -17.02,0.17 -25.35,1.95 -7.74,1.65 -15.78,3.89 -21.77,9.35 -13.33,11.51 -30.66,17.61 -48.11,18.67 8.48,2.67 17.54,1.7 26.17,0.33 19.68,-3.62 38.22,-11.68 55.98,-20.68 -11.85,2.42 -23.13,7.62 -35.32,8.5 2.88,-3.4 7.1,-5.14 11.04,-6.96 11.75,-4.89 24.63,-6.4 37.27,-6.31 6.77,0.05 13.58,-0.09 20.28,1.05 -5.38,1.06 -10.9,1.24 -16.24,2.51 -14.28,3.26 -27.78,9.33 -40.32,16.8 -4.23,2.6 -8.74,4.91 -12.19,8.55 6.38,-2.32 12.26,-5.79 18.62,-8.19 18.61,-7.4 38.99,-12.83 59.11,-9.58 -5.74,0.9 -11.6,0.51 -17.31,1.65 -17.34,3.21 -33.6,10.46 -49.24,18.38 -10.24,5.48 -21.2,9.65 -32.67,11.62 -5.31,1.2 -10.84,0.83 -16.12,2.22 6.26,0.56 12.59,0.29 18.77,-0.86 13,-2.29 25.95,-5.45 38.04,-10.83 6.1,-2.62 10.92,-7.43 17.03,-10.01 5.56,-2.31 11.16,-4.9 17.23,-5.5 -7.62,3.84 -15.46,7.8 -21.42,14.04 6.27,-2.93 12.09,-6.78 18.61,-9.19 8.32,-3.09 17.03,-5.95 26.01,-5.82 -10.07,3.32 -19.84,7.95 -28.11,14.65 5.75,-2.58 11.27,-5.73 17.35,-7.51 10.3,-3.17 20.98,-5.51 31.78,-5.91 -12.1,5.17 -24.98,8.17 -37.45,12.24 -7.17,2.69 -14.19,6.18 -19.95,11.3 7.46,-2.91 14.7,-6.86 22.85,-7.47 10.79,-0.77 21.55,-2.22 32.05,-4.92 4.99,-1.33 10.19,-2.15 14.84,-4.54 -5.32,-0.04 -10.44,1.57 -15.72,1.8 5.45,-3.71 11.84,-5.66 18.31,-6.6 -9.7,-7.98 -22.39,-10.28 -34.04,-14.01 10.22,0.51 19.74,4.37 29.22,7.84 -16.25,-15.45 -37.78,-24.06 -59.39,-28.93 17.15,1.4 33.02,8.81 48.04,16.72 -21.36,-16.19 -46.93,-28.01 -73.99,-29.5 15.05,-1.35 29.94,2.63 43.94,7.78 9.28,3.61 18.28,7.98 26.74,13.24 8.7,5 14.95,13.68 24.72,16.9 -2.14,-3.45 -5.03,-6.34 -7.39,-9.63 7.52,4.53 13.8,10.96 21.7,14.89 -3.33,-5.58 -8.41,-9.77 -12.98,-14.27 -10.97,-10.39 -23.73,-18.58 -36.74,-26.13 9.7,3.51 18.31,9.38 26.7,15.25 6.97,4.72 12.95,10.7 19.74,15.63 -4.16,-6.73 -10.77,-11.35 -15.71,-17.43 4.31,2.01 7.8,5.3 11.26,8.48 7.29,6.79 13.79,14.44 19.13,22.85 1.22,1.93 2.61,3.75 4.1,5.49 -1.31,-5.62 -4.35,-10.57 -7.2,-15.5 -4.67,-7.77 -10.11,-15.09 -16.21,-21.8 -1.26,-1.42 -2.29,-3.02 -3.27,-4.64 6.02,4.27 10.24,10.47 14.99,16.02 4.57,5.33 8.12,11.46 12.75,16.74 -0.71,-1.75 -1.43,-3.5 -2.36,-5.14 -10.08,-16.94 -22.7,-32.43 -37.63,-45.33 -3.46,-3.13 -7.42,-5.69 -10.56,-9.15 4.77,2.17 8.77,5.62 12.83,8.87 13.75,11.26 25.51,24.77 35.66,39.31 2.69,3.79 4.75,8.03 7.93,11.45 -5.7,-13.17 -13.86,-25.25 -22.84,-36.42 -4.55,-5.98 -10.4,-10.72 -15.47,-16.2 4.56,2.42 8.22,6.14 11.89,9.7 12.9,13.28 23.18,28.9 31.58,45.35 4.47,8.8 7.24,18.37 12.1,26.99 4.66,8.12 9.99,16.41 17.88,21.73 -2.54,-4.03 -5.68,-7.7 -7.6,-12.1 -6.35,-13.67 -7.48,-28.91 -9.21,-43.67 -1.1,-9.53 -4.3,-18.59 -6.39,-27.89 5.02,8.79 8.09,18.58 10.86,28.28 2.61,8.62 2.53,17.85 5.82,26.28 4.07,11.14 11.35,21.06 20.47,28.59 -7.03,-9.28 -14.22,-19.41 -15.24,-31.39 4.17,9.73 10.17,19.74 20.45,23.89 -3.39,-3.92 -7.57,-7.15 -10.35,-11.59 3.74,2.27 7.16,5.14 11.29,6.73 6.44,2.51 13.37,4.09 20.32,3.63 -4.88,-2.42 -10.29,-3.78 -14.68,-7.11 -4.7,-3.51 -9.63,-7.18 -12.48,-12.44 7.69,6.19 15.41,13.36 25.46,15.27 -12.86,-5.66 -22.79,-16.45 -29,-28.89 -3.34,-6.93 -6.87,-13.99 -8.02,-21.67 3.2,4.95 5.01,10.63 8.17,15.62 3.56,5.7 7.07,11.61 12.11,16.17 -3.17,-6.35 -6.88,-12.43 -9.28,-19.14 -3.35,-9.19 -6.71,-18.51 -8.2,-28.22 11.44,11.18 17.06,26.59 24.25,40.53 -1.23,-9.2 -5.37,-17.75 -9.22,-26.11 -2.57,-5.59 -6.21,-10.61 -8.73,-16.22 12.4,16.36 21.04,35.22 28.67,54.18 -0.94,-17.76 -7.73,-34.56 -15,-50.57 7.87,7.79 12.06,18.35 18.66,27.07 -1.06,-4.78 -3.55,-9.03 -5.72,-13.35 -8.45,-16.36 -19.11,-31.68 -32.26,-44.62 -1.46,-1.4 -3.05,-2.64 -4.67,-3.83 7.72,11.19 14.59,23.24 18.43,36.35 -8.66,-11.74 -16.76,-23.94 -26.61,-34.75 -5.36,-5.68 -10.39,-11.91 -17.03,-16.15 5.83,11.24 12.84,22.04 16.74,34.19 -2.37,-2.6 -4.22,-5.58 -6.13,-8.5 -7.31,-10.81 -15.6,-20.94 -24.63,-30.35 -2.58,-2.78 -5.21,-5.52 -8.21,-7.85 6.93,9.08 12.79,18.91 17.67,29.23 2.46,5.27 5.37,10.37 6.89,16.02 -3.03,-4.42 -5.18,-9.36 -8.05,-13.87 -8.51,-13.72 -18.34,-26.75 -30.2,-37.76 -3.93,-3.54 -7.85,-7.21 -12.58,-9.67 10.08,9.95 18.48,21.45 25.46,33.76 9.39,16.84 17.77,34.33 24.27,52.49 -3.35,-5.1 -5.67,-10.77 -8.76,-16.01 -6.34,-11.03 -13.31,-21.73 -21.35,-31.6 -3.42,-4.05 -6.69,-8.3 -10.91,-11.56 1.93,3.45 4.36,6.57 6.57,9.84 9.7,14.79 17.51,30.69 25.51,46.43 0.75,1.58 1.41,3.21 2.05,4.84 -3.79,-4.9 -6.61,-10.46 -10.35,-15.39 -13.87,-19.15 -30.74,-36.73 -51.42,-48.52 3.42,3.22 7.31,5.88 10.73,9.1 7.24,6.8 13.82,14.26 20.16,21.9 2.95,3.62 6.22,7.05 8.39,11.23 -3.97,-3.23 -7.06,-7.35 -10.71,-10.92 -23.04,-23.43 -51.57,-42.14 -83.52,-50.64 -7.92,-2.29 -16.12,-3.2 -24.26,-4.3 6.04,-0.99 12.14,-0.22 18.17,0.44 9.6,1.07 19.05,3.16 28.36,5.68 5.93,1.57 11.6,3.99 17.58,5.35 -5.58,-3.39 -11.74,-5.64 -17.83,-7.92 -23.25,-8.57 -48.64,-11.46 -73.18,-7.79 -5.45,0.73 -10.74,2.41 -16.23,2.83 8.53,-4.05 17.99,-5.54 27.25,-6.96 22.68,-2.59 45.71,1.28 67.16,8.75 8.69,2.77 16.77,7.02 25.2,10.42 -14.39,-15.42 -34.31,-24.49 -54.39,-29.99 6.94,0.23 13.6,2.43 20.09,4.73 16.6,6.02 31.74,15.54 45.31,26.76 2.94,2.5 5.76,5.17 8.89,7.46 -5.52,-11.5 -14.51,-20.79 -23.59,-29.53 11.28,5.24 19.52,14.9 28.46,23.22 -8.79,-11.75 -20,-21.59 -32.1,-29.81 -17.17,-11.31 -37.38,-18.05 -57.95,-18.69 -5.39,-0.13 -10.83,-0.08 -16.09,1.21 12.28,-0.3 24.82,0.49 36.39,4.96 9.05,3.44 18.2,7.78 25.08,14.74 -4.83,-1.96 -9.14,-4.98 -14.04,-6.78 -20.74,-8.48 -44,-8.3 -65.66,-3.85 -11.35,2.51 -22.59,5.91 -32.99,11.15 -11.36,6.38 -23.04,12.64 -35.68,16.07 18.85,-9.22 36,-21.84 55.79,-29.1 14.46,-4.74 28.31,-11.83 40.04,-21.58 -14.38,8.33 -29.94,14.42 -45.93,18.86 -5.28,1.4 -10.73,2.16 -15.89,4.02 -4.94,1.6 -9.39,4.37 -14.32,5.99 9.35,-7.58 20.69,-12.23 31.85,-16.46 10.12,-3.29 20.03,-7.3 29.34,-12.5 -7.05,2.05 -13.71,5.32 -20.93,6.81 -6.88,1.83 -14.16,1.06 -20.99,3.13 -5.52,1.37 -10.48,4.27 -15.91,5.88 11.68,-6.81 24.53,-11.83 38.02,-13.43 -9,-1.84 -18.21,-0.7 -27.1,1.13 8.01,-2.98 16.63,-3.68 25.1,-4.12 -10.96,-1.86 -21.97,0.42 -32.67,2.67 4.68,-3.88 10.94,-4.34 16.67,-5.46 -1.75,-0.7 -3.49,-1.41 -5.26,-2.03 15.02,0.17 30.07,0.38 45.08,-0.35 16.94,-2.05 34.16,-4.74 51.17,-1.85 15.19,2.45 29.74,9.89 39.82,21.64 -17.57,-14.7 -41.43,-21.51 -64.1,-18.12 5.01,0.45 10.08,0.22 15.08,0.92 14.13,1.87 27.72,7.47 39.15,15.96 24.5,18.11 50.65,33.82 77.03,48.99 13.91,7.5 26.15,17.68 37.76,28.32 25.39,23.88 46.54,53 57.83,86.21 2.21,6.05 3.63,12.35 4.94,18.65 1.41,6.51 1.28,13.34 3.68,19.63 4.12,11.34 8.97,22.45 11.92,34.18 2.71,10.16 3.71,20.68 4.24,31.15 0.3,8.97 0.11,18.03 1.77,26.89 0.97,5.14 4.76,9.61 4.1,15.07 -1.1,13.48 -7.95,26.6 -4.77,40.32 2.95,11.99 -3.19,23.68 -2.22,35.71 0.12,9.06 4.78,17.05 7.08,25.61 3.17,10.52 4.4,21.67 9.25,31.64 1.96,4.18 4.93,7.75 7.29,11.71 -7.84,-6.99 -13.4,-16.28 -16.86,-26.13 0.35,9.57 3.47,19.22 9.9,26.47 -6.19,-3 -10.47,-8.62 -13.97,-14.35 1.23,8.95 2.38,17.97 1.71,27.02 -0.15,1.21 -0.75,2.19 -1.8,2.95 -0.58,-3.93 0.42,-8.19 -1.44,-11.84 -1.88,-3.93 -3.95,-8 -7.55,-10.62 -0.9,-0.55 -1.81,-1.05 -2.7,-1.56 -0.98,6.78 -2.81,13.47 -6.2,19.46 -0.33,0.55 -0.98,1.67 -1.31,2.23 -3.21,5.13 -8.15,8.98 -10.71,14.55 -0.75,-1.1 -1.49,-2.2 -2.22,-3.29 0.12,-0.57 0.36,-1.69 0.48,-2.26 -1.15,1.38 -2.21,2.83 -2.99,4.44 -2.28,4.71 -4.34,9.55 -5.68,14.61 -1.81,6.48 -2.39,13.21 -2.48,19.91 -2.78,-8.55 -5.44,-17.34 -5.64,-26.38 -0.11,-1.82 2.05,-4.07 0.05,-5.37 0.55,4.12 -2.31,7.18 -5.28,9.55 -2.78,2.35 -5.96,4.15 -9.15,5.85 6.72,-6.04 10.9,-14.74 11.79,-23.7 -2.56,7.11 -6.53,14.67 -14.29,17.07 7.86,-6.82 10.54,-17.78 9.96,-27.82 -1.14,5.87 -3.64,11.5 -8.12,15.59 4.07,-6.55 5.34,-14.56 3.37,-22.04 -0.21,-2.43 -0.42,-4.9 -0.05,-7.32 0.64,-1.63 2.02,-2.81 3.11,-4.13 -7.16,-8.47 -10.16,-19.9 -9.15,-30.85 1.39,-13.78 0.43,-28.81 -7.72,-40.53 4.3,3.16 7.29,7.59 10.48,11.78 -0.9,-5.44 -2.39,-10.84 -5.08,-15.68 -2.3,-4.26 -6.5,-7.23 -8.22,-11.84 -4.88,-11.64 -2.59,-25.13 3.58,-35.82 -7.47,7.6 -10.18,18.69 -9.72,29.1 -2.56,-11.46 -0.77,-23.97 6.14,-33.62 -8.7,-6.84 -13.69,-17.45 -14.94,-28.3 1.83,8.08 7.04,15.78 14.92,18.93 -4.25,-4.26 -8.74,-8.79 -10.26,-14.82 -0.92,-3.77 -1.97,-7.63 -4.51,-10.67 -2.76,-3.82 -7.3,-5.57 -11.56,-7.13 3.87,0.6 7.76,1.53 11.13,3.62 4.58,2.5 7.57,6.89 10.74,10.87 -3.36,-7.59 -9.15,-13.94 -15.96,-18.61 -9.67,-5.85 -15.56,-16.61 -17.49,-27.53 4.68,8.63 9.56,17.85 17.92,23.47 -4.34,-6.9 -8.28,-14.17 -10.07,-22.19 2.04,4.41 4.54,8.82 8.79,11.46 -2.87,-4.19 -5.87,-8.39 -7.38,-13.3 -2.28,-6.03 -1.68,-12.69 -3.95,-18.72 -1.39,-4.3 -4.2,-7.88 -6.56,-11.66 6.11,5.21 9.79,12.47 13.33,19.52 -2.67,-8.75 -6.14,-17.51 -12.19,-24.51 -4.69,-6.04 -10.47,-11.5 -17.65,-14.41 -4.94,-2.12 -10.37,-2.45 -15.65,-2.92 10.89,-0.85 21.82,0.62 32.11,4.26 -14,-12.64 -35.36,-13.15 -52.11,-6.08 7.22,-4.11 15.26,-6.84 23.53,-7.73 3.37,1.18 7.03,1.57 10.31,-0.13 1.78,0.07 3.55,0.37 5.33,0.64 -14.09,-4.96 -29.94,-3.53 -43.57,2.22 -10.16,4.31 -19.97,9.41 -30.1,13.79 -7.48,2.65 -15.42,4.53 -23.4,3.55 1.54,-0.18 3.09,-0.34 4.64,-0.52 5.48,-0.69 10.84,-2.49 15.62,-5.28 14.31,-8.8 29.34,-17.62 46.18,-20.22 3.69,1.08 7.74,1.72 11.23,-0.35 0.42,-0.14 1.26,-0.41 1.68,-0.55 -20.87,-4.51 -43.19,-0.49 -61.27,10.82 9.76,-8.31 21.28,-14.9 34.09,-16.89 -19.08,-1.86 -38.6,2.38 -55.21,11.94 11.31,-8.15 24.01,-15 37.97,-17 -17.63,-0.99 -36.28,2.57 -50.61,13.41 -13.3,10.02 -28.51,17.37 -44.43,22.18 -5.26,1.53 -10.59,2.99 -16.1,3.12 16.13,-3.72 32.09,-10.19 44.54,-21.36 7.79,-6.85 16.67,-12.23 25.84,-17 -10.98,3.44 -21.48,8.45 -31.11,14.75 -6.28,4.37 -12.98,8.07 -19.88,11.34 -23.96,11.25 -49.26,20.02 -75.42,24.4 -11.54,2.75 -23.21,10.27 -26.52,22.29 0.93,-8.63 5.19,-17.58 13.1,-21.81 1.21,-0.72 2.44,-1.41 3.65,-2.12 -7.79,1.53 -14.06,6.85 -20,11.79 -4.43,3.9 -8.71,7.98 -12.66,12.37 -9.13,10.11 -21.15,17.2 -33.77,22.07 -12.01,4.5 -24.61,7.61 -37.42,8.51 -3.54,0.17 -7.09,0.45 -10.54,1.27 0.4,-1.02 0.87,-2.3 2.23,-2.2 1.38,0.21 2.76,0.42 4.15,0.65 27.13,-2.9 54.66,-13.68 72.79,-34.73 -15.6,13.53 -34.48,23.6 -54.86,27.47 -6.86,1.07 -13.82,2.25 -20.78,1.51 6.75,0.23 13.43,-0.95 20.01,-2.31 8.74,-2.13 17.55,-4.95 24.88,-10.34 -14.76,6.55 -30.91,9.52 -47.02,9.6 -8.85,0.42 -17.83,-1.29 -26.56,0.86 -13.23,2.97 -26.72,9.84 -33.29,22.28 3.69,-10.57 11.89,-19.02 21.92,-23.79 -12.47,4.02 -22.05,13.98 -29.27,24.55 -4.32,6.66 -8.1,13.75 -10.63,21.3 3.2,-5.01 6.55,-9.99 11,-13.99 -6.89,9.63 -12.99,20.28 -14.8,32.15 2.65,-7.41 5.49,-15.17 11.42,-20.62 -7.14,10.49 -9.03,23.34 -9.58,35.75 0.16,-0.76 0.46,-2.27 0.62,-3.03 0.58,0.68 1.16,1.37 1.74,2.07 -1.45,8 -1.83,16.23 -1.05,24.32 1.86,-6.82 3,-13.81 4.06,-20.79 0.67,11.88 0.39,23.81 1.64,35.65 1.08,14.04 1.47,28.12 1.68,42.2 0.59,-0.61 1.18,-1.22 1.77,-1.82 3.88,-4.02 7.73,-8.13 10.68,-12.91 -3.46,2.36 -6.59,5.17 -10.19,7.33 4.86,-9.37 11.95,-17.66 20.87,-23.37 -1.02,0.18 -3.06,0.55 -4.08,0.73 0.82,-0.78 2.44,-2.35 3.26,-3.13 -0.84,0.16 -2.5,0.48 -3.34,0.65 0.94,-0.96 1.89,-1.9 2.84,-2.85 0.62,0.6 1.25,1.2 1.88,1.82 5.81,-3.97 11.85,-7.57 18.35,-10.31 -1.92,1.98 -3.63,4.24 -4.16,7.02 5.44,-0.85 10.78,-2.25 16.24,-3.03 24.07,-3.9 48.78,-0.87 72.08,5.84 -5.98,-4.78 -13.07,-7.93 -20.3,-10.27 15.25,0.56 31.21,4.68 42.76,15.13 4.11,3.75 7.34,8.37 9.67,13.4 -4.4,-5.11 -9.78,-9.39 -16.13,-11.8 6.31,6 13.12,12.79 14.13,21.91 0.22,2.81 -2.53,4.23 -4.5,5.59 -8.77,1.03 -17.42,-0.92 -25.8,-3.3 3.64,1.94 7.42,3.61 11.16,5.36 -8.78,-1.25 -17.62,-2.69 -26,-5.69 -15.23,-4.56 -30.84,-7.75 -46.56,-10.06 -0.09,0.41 -0.26,1.23 -0.34,1.64 -6.88,0.41 -13.91,-0.25 -20.6,1.74 -7.91,1.99 -14.06,7.62 -20.99,11.59 -7.3,3.97 -14.58,8.04 -22.4,10.89 -0.38,5.75 -0.42,11.5 -0.67,17.25 -0.26,6.84 -1.69,13.55 -2.22,20.37 -1.99,11.63 -2.21,23.47 -3.71,35.15 -0.17,-0.34 -0.5,-1.04 -0.67,-1.39 -0.21,11.9 -0.17,23.8 -0.03,35.7 0.17,-0.33 0.52,-0.98 0.7,-1.3 0.89,4.8 1.26,9.68 1.69,14.55 -2,-0.57 -3.06,-2.48 -4.05,-4.13 -0.35,-1.19 -0.68,-2.38 -0.97,-3.57 -1.32,-6.19 -3.47,-12.19 -4.39,-18.47 -1.38,-6.99 -1.2,-14.13 -1.74,-21.19 -1.06,6.51 -0.98,13.13 -1.7,19.68 -0.69,-6.31 -1.21,-12.63 -1.6,-18.96 1.77,-4.66 1,-9.69 1.19,-14.54 -0.05,-2.19 0.27,-4.65 -1.4,-6.36 -0.17,-0.25 -0.51,-0.76 -0.67,-1.01 0.15,-1.42 0.27,-2.84 0.37,-4.26 0.38,-4.88 -0.3,-9.75 -0.96,-14.58 -2.8,2.83 -5.81,5.53 -9.44,7.26 2.24,-3.85 4.77,-7.67 5.56,-12.13 1.23,-4.91 0.11,-9.93 0.26,-14.9 0.74,-12.45 2.49,-25.27 -0.86,-37.5 -1.51,-6.02 -4.94,-11.27 -7.27,-16.96 -4.57,-10.88 -7.7,-22.61 -7.25,-34.5 0.09,-4.77 1.1,-9.64 -0.22,-14.33 -3.16,-11.26 -10.06,-21.67 -9.99,-33.7 -0.29,-4.39 1.75,-8.32 3.9,-11.97 -3.17,2.43 -5.87,5.48 -7.6,9.11 -0.91,-2.4 -2.78,0.96 -0.38,0.77 -1.01,3.26 -1.51,6.65 -2.06,10.01 -1.46,-8.4 1.37,-16.92 6.54,-23.53 -1.48,0.61 -2.95,1.25 -4.44,1.81 -0.43,-0.7 -1.28,-2.11 -1.71,-2.81 2.35,-1.57 4.49,-3.43 6.55,-5.36 -10.32,3.34 -22.21,4.06 -32,-1.25 -0.04,-0.24 -0.13,-0.72 -0.17,-0.96 1.98,-0.82 4.14,-0.33 6.2,-0.29 7.12,0.64 14.21,-0.72 21.17,-2.05 -8.16,-0.08 -16.35,0.85 -24.47,-0.35 -10.35,-1.92 -20.46,-7.89 -24.6,-17.98 3.99,7.9 12.07,13.44 20.94,13.99 8.98,0.54 18.02,-1.79 26.09,-5.64 -10.34,2.67 -22.27,2.63 -31.1,-4.13 9.87,4.63 22.4,2.79 30.2,-4.94 -9.24,4.49 -20.63,4.57 -29.38,-1.14 3.64,1.02 7.4,1.9 11.22,1.61 7.47,-0.22 13.94,-5.15 18.21,-10.98 -7.03,-2.47 -14.5,-0.92 -21.12,1.99 4.11,-2.53 8.31,-4.93 12.32,-7.61 -11.12,-1.68 -22.96,2.12 -30.63,10.45 4.88,-6.14 10.42,-12.16 17.64,-15.52 1.98,-0.82 4.6,-1.66 6.25,-2.45 -5.17,0.27 -10.41,1.29 -15.02,3.71 -3.22,1.62 -5.73,4.25 -8.51,6.48 6.45,-6.3 14.31,-10.88 21.33,-16.47 4.98,-4.59 8.2,-11.02 9.07,-17.72 -3.64,6.3 -6.69,13.95 -13.88,16.97 -8.25,3.25 -15.65,8.69 -20.74,16 3.32,-8.34 8.81,-15.55 15.12,-21.84 -5.12,2.29 -9.72,5.53 -13.87,9.26 3.99,-6.18 9.38,-11.35 15.29,-15.69 5.58,-4.17 10.6,-9.57 12.69,-16.37 -4.92,4.61 -10.03,9.19 -16.28,11.91 7.98,-5.87 14.21,-13.88 18.23,-22.92 -5.77,3.27 -12.48,4.11 -18.99,3.11 10.4,-0.11 18.72,-7.31 24.97,-14.92 -4.81,-0.13 -10.04,-0.32 -14.09,-3.28 -4.03,-2.87 -5.96,-8.02 -5.44,-12.87 0.38,-0.2 1.13,-0.61 1.51,-0.81 2.22,5.23 6.85,8.96 12.36,10.25 -2.86,-2.92 -6.15,-5.68 -7.54,-9.66 -3.27,-8.12 -0.55,-17.18 3.51,-24.48 5.34,-9.27 12.46,-17.43 20.33,-24.63 -9.09,10.2 -18.24,22.01 -19.23,36.16 -0.57,9.58 6.14,17.88 14.31,22.07 -5.41,-4.59 -10.52,-10.6 -10.66,-18.07 -0.77,-12.79 8.1,-23.51 16.9,-31.74 -5.59,6.22 -11.41,13.15 -12.64,21.7 -1.34,8.43 5.98,15.67 13.67,17.51 5.77,0.94 11.83,0.45 17.26,-1.8 -4.66,-0.27 -9.48,-0.09 -13.88,-1.87 -5.31,-1.71 -9.31,-5.98 -11.62,-10.94 5.87,4.13 13.71,5.44 20.37,2.47 6.43,-2.99 11.92,-7.93 15.85,-13.81 -6.3,5.29 -13.48,10.69 -22.06,10.9 -5.77,0.2 -10.71,-3.41 -14.11,-7.75 10.89,3.58 21.16,-3.82 28.37,-11.25 -5.6,3.42 -11.97,5.49 -18.57,5.49 11.61,-3.37 19.29,-13.69 24.49,-24.02 -6.14,6.25 -12.71,12.78 -21.41,15.2 7.11,-4.76 13.37,-10.78 17.97,-18.03 -5.83,0.37 -11.06,3.07 -15.95,6.04 6.15,-7.32 14.81,-12.43 24.18,-14.32 8.99,-1.94 16.85,-7.14 23.79,-12.98 7.51,-6.26 13.79,-13.84 19.27,-21.91 -3.42,7.73 -8.35,14.63 -13.04,21.62 7.55,-6.27 14.38,-13.54 19.47,-21.97 1.23,-2.06 2.89,-3.86 4.96,-5.12 7.99,-5.14 17.4,-7.19 26.4,-9.83 6.19,-2.52 11.17,-7.22 16.2,-11.48 3.54,-3.21 7.34,-6.16 10.39,-9.86 -8.83,5.9 -17.72,12.54 -28.38,14.61 17.05,-6.43 32.27,-18.38 41.62,-34.12 z"
       inkscape:connector-curvature="0"
       style="fill:#66503e" />
    <path
       id="path12"
       d="m -435.35524,-277.82961 c 5.35,0.3 10.71,0.25 16.06,0.57 1.77,0.62 3.51,1.33 5.26,2.03 -5.73,1.12 -11.99,1.58 -16.67,5.46 10.7,-2.25 21.71,-4.53 32.67,-2.67 -8.47,0.44 -17.09,1.14 -25.1,4.12 8.89,-1.83 18.1,-2.97 27.1,-1.13 -13.49,1.6 -26.34,6.62 -38.02,13.43 5.43,-1.61 10.39,-4.51 15.91,-5.88 6.83,-2.07 14.11,-1.3 20.99,-3.13 7.22,-1.49 13.88,-4.76 20.93,-6.81 -9.31,5.2 -19.22,9.21 -29.34,12.5 -11.16,4.23 -22.5,8.88 -31.85,16.46 4.93,-1.62 9.38,-4.39 14.32,-5.99 5.16,-1.86 10.61,-2.62 15.89,-4.02 15.99,-4.44 31.55,-10.53 45.93,-18.86 -11.73,9.75 -25.58,16.84 -40.04,21.58 -19.79,7.26 -36.94,19.88 -55.79,29.1 12.64,-3.43 24.32,-9.69 35.68,-16.07 10.4,-5.24 21.64,-8.64 32.99,-11.15 21.66,-4.45 44.92,-4.63 65.66,3.85 4.9,1.8 9.21,4.82 14.04,6.78 -6.88,-6.96 -16.03,-11.3 -25.08,-14.74 -11.57,-4.47 -24.11,-5.26 -36.39,-4.96 5.26,-1.29 10.7,-1.34 16.09,-1.21 20.57,0.64 40.78,7.38 57.95,18.69 12.1,8.22 23.31,18.06 32.1,29.81 -8.94,-8.32 -17.18,-17.98 -28.46,-23.22 9.08,8.74 18.07,18.03 23.59,29.53 -3.13,-2.29 -5.95,-4.96 -8.89,-7.46 -13.57,-11.22 -28.71,-20.74 -45.31,-26.76 -6.49,-2.3 -13.15,-4.5 -20.09,-4.73 20.08,5.5 40,14.57 54.39,29.99 -8.43,-3.4 -16.51,-7.65 -25.2,-10.42 -21.45,-7.47 -44.48,-11.34 -67.16,-8.75 -9.26,1.42 -18.72,2.91 -27.25,6.96 5.49,-0.42 10.78,-2.1 16.23,-2.83 24.54,-3.67 49.93,-0.78 73.18,7.79 6.09,2.28 12.25,4.53 17.83,7.92 -5.98,-1.36 -11.65,-3.78 -17.58,-5.35 -9.31,-2.52 -18.76,-4.61 -28.36,-5.68 -6.03,-0.66 -12.13,-1.43 -18.17,-0.44 8.14,1.1 16.34,2.01 24.26,4.3 31.95,8.5 60.48,27.21 83.52,50.64 3.65,3.57 6.74,7.69 10.71,10.92 -2.17,-4.18 -5.44,-7.61 -8.39,-11.23 -6.34,-7.64 -12.92,-15.1 -20.16,-21.9 -3.42,-3.22 -7.31,-5.88 -10.73,-9.1 20.68,11.79 37.55,29.37 51.42,48.52 3.74,4.93 6.56,10.49 10.35,15.39 -0.64,-1.63 -1.3,-3.26 -2.05,-4.84 -8,-15.74 -15.81,-31.64 -25.51,-46.43 -2.21,-3.27 -4.64,-6.39 -6.57,-9.84 4.22,3.26 7.49,7.51 10.91,11.56 8.04,9.87 15.01,20.57 21.35,31.6 3.09,5.24 5.41,10.91 8.76,16.01 -6.5,-18.16 -14.88,-35.65 -24.27,-52.49 -6.98,-12.31 -15.38,-23.81 -25.46,-33.76 4.73,2.46 8.65,6.13 12.58,9.67 11.86,11.01 21.69,24.04 30.2,37.76 2.87,4.51 5.02,9.45 8.05,13.87 -1.52,-5.65 -4.43,-10.75 -6.89,-16.02 -4.88,-10.32 -10.74,-20.15 -17.67,-29.23 3,2.33 5.63,5.07 8.21,7.85 9.03,9.41 17.32,19.54 24.63,30.35 1.91,2.92 3.76,5.9 6.13,8.5 -3.9,-12.15 -10.91,-22.95 -16.74,-34.19 6.64,4.24 11.67,10.47 17.03,16.15 9.85,10.81 17.95,23.01 26.61,34.75 -3.84,-13.11 -10.71,-25.16 -18.43,-36.35 1.62,1.19 3.21,2.43 4.67,3.83 13.15,12.94 23.81,28.26 32.26,44.62 2.17,4.32 4.66,8.57 5.72,13.35 -6.6,-8.72 -10.79,-19.28 -18.66,-27.07 7.27,16.01 14.06,32.81 15,50.57 -7.63,-18.96 -16.27,-37.82 -28.67,-54.18 2.52,5.61 6.16,10.63 8.73,16.22 3.85,8.36 7.99,16.91 9.22,26.11 -7.19,-13.94 -12.81,-29.35 -24.25,-40.53 1.49,9.71 4.85,19.03 8.2,28.22 2.4,6.71 6.11,12.79 9.28,19.14 -5.04,-4.56 -8.55,-10.47 -12.11,-16.17 -3.16,-4.99 -4.97,-10.67 -8.17,-15.62 1.15,7.68 4.68,14.74 8.02,21.67 6.21,12.44 16.14,23.23 29,28.89 -10.05,-1.91 -17.77,-9.08 -25.46,-15.27 2.85,5.26 7.78,8.93 12.48,12.44 4.39,3.33 9.8,4.69 14.68,7.11 -6.95,0.46 -13.88,-1.12 -20.32,-3.63 -4.13,-1.59 -7.55,-4.46 -11.29,-6.73 2.78,4.44 6.96,7.67 10.35,11.59 -10.28,-4.15 -16.28,-14.16 -20.45,-23.89 1.02,11.98 8.21,22.11 15.24,31.39 -9.12,-7.53 -16.4,-17.45 -20.47,-28.59 -3.29,-8.43 -3.21,-17.66 -5.82,-26.28 -2.77,-9.7 -5.84,-19.49 -10.86,-28.28 2.09,9.3 5.29,18.36 6.39,27.89 1.73,14.76 2.86,30 9.21,43.67 1.92,4.4 5.06,8.07 7.6,12.1 -7.89,-5.32 -13.22,-13.61 -17.88,-21.73 -4.86,-8.62 -7.63,-18.19 -12.1,-26.99 -8.4,-16.45 -18.68,-32.07 -31.58,-45.35 -3.67,-3.56 -7.33,-7.28 -11.89,-9.7 5.07,5.48 10.92,10.22 15.47,16.2 8.98,11.17 17.14,23.25 22.84,36.42 -3.18,-3.42 -5.24,-7.66 -7.93,-11.45 -10.15,-14.54 -21.91,-28.05 -35.66,-39.31 -4.06,-3.25 -8.06,-6.7 -12.83,-8.87 3.14,3.46 7.1,6.02 10.56,9.15 14.93,12.9 27.55,28.39 37.63,45.33 0.93,1.64 1.65,3.39 2.36,5.14 -4.63,-5.28 -8.18,-11.41 -12.75,-16.74 -4.75,-5.55 -8.97,-11.75 -14.99,-16.02 0.98,1.62 2.01,3.22 3.27,4.64 6.1,6.71 11.54,14.03 16.21,21.8 2.85,4.93 5.89,9.88 7.2,15.5 -1.49,-1.74 -2.88,-3.56 -4.1,-5.49 -5.34,-8.41 -11.84,-16.06 -19.13,-22.85 -3.46,-3.18 -6.95,-6.47 -11.26,-8.48 4.94,6.08 11.55,10.7 15.71,17.43 -6.79,-4.93 -12.77,-10.91 -19.74,-15.63 -8.39,-5.87 -17,-11.74 -26.7,-15.25 13.01,7.55 25.77,15.74 36.74,26.13 4.57,4.5 9.65,8.69 12.98,14.27 -7.9,-3.93 -14.18,-10.36 -21.7,-14.89 2.36,3.29 5.25,6.18 7.39,9.63 -9.77,-3.22 -16.02,-11.9 -24.72,-16.9 -8.46,-5.26 -17.46,-9.63 -26.74,-13.24 -14,-5.15 -28.89,-9.13 -43.94,-7.78 27.06,1.49 52.63,13.31 73.99,29.5 -15.02,-7.91 -30.89,-15.32 -48.04,-16.72 21.61,4.87 43.14,13.48 59.39,28.93 -9.48,-3.47 -19,-7.33 -29.22,-7.84 11.65,3.73 24.34,6.03 34.04,14.01 -6.47,0.94 -12.86,2.89 -18.31,6.6 5.28,-0.23 10.4,-1.84 15.72,-1.8 -4.65,2.39 -9.85,3.21 -14.84,4.54 -10.5,2.7 -21.26,4.15 -32.05,4.92 -8.15,0.61 -15.39,4.56 -22.85,7.47 5.76,-5.12 12.78,-8.61 19.95,-11.3 12.47,-4.07 25.35,-7.07 37.45,-12.24 -10.8,0.4 -21.48,2.74 -31.78,5.91 -6.08,1.78 -11.6,4.93 -17.35,7.51 8.27,-6.7 18.04,-11.33 28.11,-14.65 -8.98,-0.13 -17.69,2.73 -26.01,5.82 -6.52,2.41 -12.34,6.26 -18.61,9.19 5.96,-6.24 13.8,-10.2 21.42,-14.04 -6.07,0.6 -11.67,3.19 -17.23,5.5 -6.11,2.58 -10.93,7.39 -17.03,10.01 -12.09,5.38 -25.04,8.54 -38.04,10.83 -6.18,1.15 -12.51,1.42 -18.77,0.86 5.28,-1.39 10.81,-1.02 16.12,-2.22 11.47,-1.97 22.43,-6.14 32.67,-11.62 15.64,-7.92 31.9,-15.17 49.24,-18.38 5.71,-1.14 11.57,-0.75 17.31,-1.65 -20.12,-3.25 -40.5,2.18 -59.11,9.58 -6.36,2.4 -12.24,5.87 -18.62,8.19 3.45,-3.64 7.96,-5.95 12.19,-8.55 12.54,-7.47 26.04,-13.54 40.32,-16.8 5.34,-1.27 10.86,-1.45 16.24,-2.51 -6.7,-1.14 -13.51,-1 -20.28,-1.05 -12.64,-0.09 -25.52,1.42 -37.27,6.31 -3.94,1.82 -8.16,3.56 -11.04,6.96 12.19,-0.88 23.47,-6.08 35.32,-8.5 -17.76,9 -36.3,17.06 -55.98,20.68 -8.63,1.37 -17.69,2.34 -26.17,-0.33 17.45,-1.06 34.78,-7.16 48.11,-18.67 5.99,-5.46 14.03,-7.7 21.77,-9.35 8.33,-1.78 16.88,-1.63 25.35,-1.95 -20.08,-3.44 -41.98,-1.13 -59.38,10.09 -6.11,3.95 -12.8,6.85 -19.57,9.44 -14.27,5.39 -29.81,9.02 -45.09,6.65 -5.95,-0.81 -11.27,-3.67 -16.68,-6.07 3.36,4.42 8.24,7.31 13.04,9.92 15.2,7.68 32.9,9.05 49.57,6.71 6.11,-0.7 12.05,-2.48 18.18,-3.08 -10.6,3.96 -21.86,5.87 -33.09,6.93 -17.02,1.31 -35.12,-0.9 -49.66,-10.45 -4.66,-2.87 -8.41,-6.89 -12.46,-10.51 8.73,12.27 22.4,20.54 36.89,24.14 10.86,2.82 22.16,2.1 33.2,1.02 -11.13,2.77 -22.74,3.01 -34.11,2.01 -16.35,-1.64 -32.49,-8.35 -43.97,-20.32 -10.94,-12.44 -23.46,-23.55 -37.29,-32.69 -4.18,-2.8 -8.62,-5.42 -13.65,-6.32 11.5,5.49 21.4,13.7 30.31,22.7 3.86,4.03 8.1,7.79 11.2,12.48 -3.81,-2.07 -7.26,-4.74 -11.12,-6.72 -6.44,-3.38 -13.34,-5.77 -19.8,-9.1 -11.4,-5.53 -22.37,-12.5 -30.56,-22.31 4.04,7.53 9.78,14.14 16.43,19.49 6.83,5.61 15.59,8 22.67,13.24 5.74,4.23 11.47,8.9 15.14,15.13 -7.46,-6.74 -16.01,-12.64 -25.84,-15.25 6.87,11.1 17.66,19.45 29.7,24.31 -8.54,-0.62 -16.59,-4.05 -24.15,-7.86 -19.49,-10.07 -33.64,-28.43 -41.5,-48.61 -2.34,-6.03 -4.76,-12.12 -5.57,-18.58 8.84,10.87 18.99,20.87 31.01,28.19 4.84,2.87 9.83,5.68 15.36,6.93 -7.47,-7.17 -16.81,-12.01 -24.63,-18.71 6.55,0.26 12.72,2.6 19.06,4.01 -6.21,-6.47 -14.59,-10.02 -22.12,-14.61 1.81,0.34 3.65,0.64 5.4,1.24 12.12,4.57 23.16,11.65 33.1,19.9 3.4,2.82 6.38,6.15 10.09,8.59 -3.46,-6.5 -8.36,-12.08 -12.75,-17.95 -4.73,-6.42 -10.57,-11.87 -15.66,-17.96 1.79,1.04 3.55,2.15 5.14,3.5 11.45,9.94 21.3,21.56 30.35,33.68 2.19,3.04 4.22,6.24 7.03,8.77 -2,-5.26 -5.49,-9.73 -8.35,-14.52 -5.82,-9.36 -12.59,-18.07 -19.93,-26.27 10.79,6.6 18.55,16.84 27.41,25.62 -6.28,-12.8 -15.26,-24.04 -23.75,-35.42 6.62,4.71 12.46,10.42 18.1,16.24 6.89,7.21 12.05,15.87 18.96,23.07 8.82,9.42 20.28,16.97 33.25,18.81 14.62,1.91 29.73,-1.79 42.42,-9.08 -5.6,0.83 -10.83,3.18 -16.43,4.02 -12.29,2.2 -25.49,2.31 -37.13,-2.68 5.06,0.34 10.1,1.24 15.2,1.14 13.88,-0.13 27.5,-4.25 39.75,-10.63 18.55,-9.33 38.67,-15.66 59.41,-17.48 -3.03,-0.47 -6.11,-0.67 -9.16,-0.4 -11.82,0.82 -23.81,1.94 -35.03,6.02 -19.02,7.17 -40.15,9.48 -60.12,5.29 -6.07,-1.09 -11.5,-4.02 -17.14,-6.33 8.48,7.8 19.9,11.92 31.22,13.18 6.76,0.89 13.47,-0.57 20.2,-0.85 -8.32,3.12 -17.39,3.52 -26.18,2.91 -18.44,-1.56 -35.52,-10.79 -48.82,-23.37 -4.1,-3.99 -8.36,-7.93 -11.49,-12.77 3.75,2.87 7.04,6.45 11.49,8.29 -10.07,-10.72 -19.72,-22.87 -23.25,-37.43 3.2,4.83 5.96,9.98 9.7,14.45 10.47,13.4 25.47,23.69 42.41,26.59 18.69,3.14 37.68,-2.22 54.25,-10.72 2.91,-1.63 5.83,-3.29 8.99,-4.41 -5.81,5.29 -12.83,9 -19.64,12.83 -6.45,3.67 -13.63,5.62 -20.6,7.99 9.27,-0.97 18.46,-3 27.16,-6.39 9.15,-3.51 17.19,-9.35 26.4,-12.72 20.68,-7.94 43.63,-11.2 65.49,-6.7 5.53,1.05 10.67,3.45 16.07,4.96 -4.31,-3.02 -9.28,-4.86 -14.12,-6.83 -18.26,-7.37 -38.54,-10.29 -58.03,-6.99 -5.47,0.84 -10.68,2.85 -16.14,3.76 5.43,-3.09 11.5,-4.73 17.51,-6.25 21.8,-5.39 45.29,-3.36 65.95,5.35 2.34,1.02 4.76,1.86 7.23,2.52 -5.76,-4.32 -12.62,-6.84 -19.2,-9.66 -18.3,-7.23 -39.11,-10.63 -58.22,-4.59 -14.4,5.21 -27.58,13.24 -40.15,21.87 -7.65,5.11 -16.63,7.97 -25.65,9.41 -9.72,1.21 -20.51,0.82 -28.7,-5.18 4.78,0.68 9.49,2.09 14.36,2.03 10.36,-0.12 20.45,-3.63 29.24,-8.99 10.06,-6.2 19.9,-12.77 29.91,-19.05 10.6,-6.04 22.44,-9.56 34.37,-11.84 -4.47,-1.16 -9.02,0.11 -13.44,0.87 -10.53,1.96 -20.69,5.7 -30.11,10.77 -13.75,7.42 -28.38,13.61 -43.87,16.15 -10.84,1.43 -22.64,1.13 -32.12,-4.97 7.47,2.14 15.17,3.99 23.02,3.16 12.79,-1.17 25.52,-4.52 37.06,-10.21 -7.16,1.43 -13.94,4.3 -21.16,5.48 -8.9,1.49 -18.26,2.13 -27.05,-0.28 4.34,-0.57 8.74,-0.31 13.1,-0.66 9.25,-1.07 18.04,-4.8 25.74,-9.95 13.48,-9.33 29.64,-13.86 45.68,-16.27 6.55,-1.1 13.22,-1 19.81,-1.79 -10.97,-1.68 -22.17,-0.91 -33.1,0.69 -8.61,1.21 -16.65,4.64 -25.05,6.69 -9.16,2.32 -18.55,3.73 -27.98,4.25 -5.82,0.18 -11.75,0.58 -17.45,-0.85 5.84,-0.79 11.81,-0.64 17.56,-2.1 12.64,-2.69 23.82,-9.41 35.45,-14.73 18.97,-9.46 39.81,-17.16 61.36,-15.65 6.18,0.22 12.12,2.11 18.23,2.87 -10.82,-5.33 -23.1,-7.86 -35.14,-7.24 -11.65,0.49 -21.89,6.62 -32.37,11.06 -18.17,8.25 -36.85,16.23 -56.77,18.97 -14.53,1.83 -30.32,1.09 -43.26,-6.38 5.81,0.65 11.44,2.56 17.34,2.49 12.74,0.71 25.51,-2.25 36.96,-7.77 1.65,-0.82 3.14,-1.92 4.6,-3.04 -5,1.3 -9.66,3.65 -14.72,4.73 -9.15,1.99 -18.82,2.4 -27.92,-0.04 5.77,-0.16 11.61,0.01 17.28,-1.32 12.23,-2.52 23.49,-8.38 33.71,-15.41 1.74,-1.18 3.23,-2.67 4.67,-4.2 -10.56,5.17 -21.42,11.33 -33.59,10.79 -11.92,-0.87 -24.03,-1.45 -35.83,0.84 -3.5,0.76 -6.89,1.94 -10.38,2.71 9.85,-7.23 22.23,-9.85 34.14,-11.35 13.87,-1.65 27.64,-4.74 40.53,-10.18 5.18,-2.26 10.37,-4.7 14.7,-8.39 -4.96,1.89 -9.54,4.61 -14.52,6.44 -12.9,4.79 -26.69,8.07 -40.54,7.06 16.21,-1.17 32.66,-5.7 45.88,-15.44 -11.97,5.23 -24.7,12.03 -38.18,9.51 10.18,-1.46 20.03,-5.16 28.67,-10.72 -6.16,1.07 -12.15,3.48 -18.51,2.74 2.58,-0.71 5.2,-1.32 7.79,-2.01 8.35,-2.07 14.8,-8.26 22.93,-10.92 5.49,-2.52 11.55,-2.81 17.48,-3.25 -4.76,-0.59 -9.56,-0.71 -14.31,-1.38 z"
       inkscape:connector-curvature="0"
       style="fill:#927054" />
    <path
       id="path14"
       d="m -668.12524,-144.41961 c 18.69,0.53 36.24,-7.77 54.87,-7.87 12.23,0.17 23.95,5.43 33.08,13.39 12.79,11.1 22.12,25.41 32.06,38.96 5.73,7.52 12.57,14.31 20.64,19.3 1.29,0.83 2.5,1.8 3.65,2.82 -8.86,-2.69 -15.61,-9.41 -22.97,-14.65 2.18,4.31 6.17,7.26 9.67,10.45 11.18,9.67 26.04,15.39 40.9,14.22 4.46,-0.25 8.74,-1.64 13.18,-2.11 -10.38,7.73 -23.79,9.05 -36.31,9.43 12.52,4.56 26.64,2.66 38.65,-2.64 -3.4,4.55 -8.79,6.78 -13.38,9.86 12.15,-3.34 22.15,-11.54 31.96,-19.08 -4.79,9.72 -13.07,17.55 -22.37,22.97 -3.16,1.66 -6.41,3.41 -10.03,3.73 4.86,-3.7 10.78,-6.26 14.34,-11.46 -4.31,2.18 -8.2,5.26 -12.97,6.42 -6.19,2.14 -12.77,0.33 -19.11,1.35 -5.63,0.58 -10.94,2.66 -16.49,3.66 6.27,-5.58 15.18,-6.11 22.78,-8.91 -12.05,-2.77 -24.48,-3.7 -36.8,-2.81 -3.93,0.44 -7.8,1.39 -11.78,1.34 5.87,-3.14 12.62,-3.45 19,-4.83 -1.42,-0.58 -2.86,-1.11 -4.34,-1.49 -17.31,-4.38 -33.48,-14.06 -44.59,-28.16 -6.55,-8.17 -11.37,-17.65 -14.43,-27.65 -1.98,-0.34 0.04,-3.5 0.73,-2.07 2.02,8.84 7.13,16.67 12.28,24.03 2.5,3.28 4.76,6.82 7.94,9.52 -5.11,-9.36 -11.34,-18.58 -13.08,-29.32 2.16,3.61 3.6,7.59 5.69,11.24 8.42,14.94 20.63,28.57 36.78,35.2 8.69,3.52 18.14,5.87 27.57,5.38 -5.59,-1.47 -11.32,-2.68 -16.47,-5.43 -15.5,-7.87 -26.63,-21.98 -35.36,-36.63 -4.95,-8.7 -10.88,-16.91 -18.2,-23.78 -2.61,-2.39 -5.24,-4.87 -8.55,-6.25 6.01,6.72 12.39,13.62 15.28,22.37 -3.05,-3.62 -5.47,-7.76 -8.93,-11.03 -8.56,-8.92 -20.65,-13.96 -32.9,-14.77 -9.04,-0.98 -18.05,0.66 -27.01,1.7 -6.8,0.74 -13.63,-0.79 -19.87,-3.44 0.22,-0.25 0.66,-0.75 0.88,-1 8.2,2.15 16.85,1.51 25.09,-0.06 -6.95,-1.33 -14.27,0.58 -21.08,-1.9 z"
       inkscape:connector-curvature="0"
       style="fill:#927054" />
    <path
       id="path16"
       d="m -684.85524,-150.72961 c 0.54,0.52 0.54,0.52 0,0 z"
       inkscape:connector-curvature="0"
       style="fill:#102543" />
    <path
       id="path18"
       d="m -673.89524,-112.97961 c 7.34,-9.39 17.67,-17.07 29.67,-18.9 12.35,-1.98 24.81,2.27 35.19,8.78 1.15,0.68 2.06,1.66 2.97,2.63 -6.99,-1.12 -14.19,-1.19 -21.05,0.77 -4.86,1.01 -8.95,3.91 -13.4,5.94 4.38,-5.66 11.7,-7.87 18.51,-8.77 -1.68,-1.52 -4.08,-1.09 -6.15,-1.25 -7.83,-0.28 -15.86,1.19 -22.69,5.15 -1.95,1.17 -3.9,2.35 -6.01,3.21 6.28,-8.68 18.04,-10.01 27.94,-10.62 -11.28,-4.45 -24.52,-1.64 -34.54,4.78 -3.9,2.22 -6.75,5.78 -10.44,8.28 z"
       inkscape:connector-curvature="0"
       style="fill:#927054" />
    <path
       id="path20"
       d="m -701.84524,-109.70961 c 0.54,0.53 0.54,0.53 0,0 z"
       inkscape:connector-curvature="0"
       style="fill:#0e2442" />
    <path
       id="path22"
       d="m -728.21524,-100.80961 c 1.36,0.72 0.96,2.86 1.14,4.21 -0.38,0.2 -1.13,0.61 -1.51,0.81 -0.01,-1.67 -0.35,-3.46 0.37,-5.02 z"
       inkscape:connector-curvature="0"
       style="fill:#4f453f" />
    <path
       id="path24"
       d="m -335.87524,-80.56961 c 14.33,-10.84 32.98,-14.4 50.61,-13.41 -13.96,2 -26.66,8.85 -37.97,17 16.61,-9.56 36.13,-13.8 55.21,-11.94 -12.81,1.99 -24.33,8.58 -34.09,16.89 18.08,-11.31 40.4,-15.33 61.27,-10.82 -0.42,0.14 -1.26,0.41 -1.68,0.55 -3.75,-0.11 -7.51,-0.18 -11.23,0.35 -16.84,2.6 -31.87,11.42 -46.18,20.22 -4.78,2.79 -10.14,4.59 -15.62,5.28 4.05,-3.26 8.85,-5.53 12.48,-9.32 -5.63,0.98 -11,2.98 -16.52,4.38 -15.71,4.07 -31.4,8.34 -47.47,10.75 -22.04,4.39 -43.69,10.59 -64.97,17.78 -15.78,5.21 -31.38,11.14 -46.1,18.9 -28.89,14.03 -59.5,26.74 -92.01,28.09 -10.02,0.67 -20.02,-1.84 -30,-0.18 -13.58,1.29 -27.01,7.89 -34.87,19.29 -10.09,14.01 -11.9,32.03 -11.23,48.8 1.36,19.29 2.73,38.62 2.02,57.97 -0.13,5.99 -2.21,12.07 -0.3,17.96 -0.59,0.6 -1.18,1.21 -1.77,1.82 -0.21,-14.08 -0.6,-28.16 -1.68,-42.2 -1.25,-11.84 -0.97,-23.77 -1.64,-35.65 -1.06,6.98 -2.2,13.97 -4.06,20.79 -0.78,-8.09 -0.4,-16.32 1.05,-24.32 -0.58,-0.7 -1.16,-1.39 -1.74,-2.07 -0.16,0.76 -0.46,2.27 -0.62,3.03 0.55,-12.41 2.44,-25.26 9.58,-35.75 -5.93,5.45 -8.77,13.21 -11.42,20.62 1.81,-11.87 7.91,-22.52 14.8,-32.15 -4.45,4 -7.8,8.98 -11,13.99 2.53,-7.55 6.31,-14.64 10.63,-21.3 7.22,-10.57 16.8,-20.53 29.27,-24.55 -10.03,4.77 -18.23,13.22 -21.92,23.79 6.57,-12.44 20.06,-19.31 33.29,-22.28 8.73,-2.15 17.71,-0.44 26.56,-0.86 16.11,-0.08 32.26,-3.05 47.02,-9.6 -7.33,5.39 -16.14,8.21 -24.88,10.34 -6.58,1.36 -13.26,2.54 -20.01,2.31 6.96,0.74 13.92,-0.44 20.78,-1.51 20.38,-3.87 39.26,-13.94 54.86,-27.47 -18.13,21.05 -45.66,31.83 -72.79,34.73 -1.39,-0.23 -2.77,-0.44 -4.15,-0.65 -1.36,-0.1 -1.83,1.18 -2.23,2.2 3.45,-0.82 7,-1.1 10.54,-1.27 12.81,-0.9 25.41,-4.01 37.42,-8.51 12.62,-4.87 24.64,-11.96 33.77,-22.07 3.95,-4.39 8.23,-8.47 12.66,-12.37 5.94,-4.94 12.21,-10.26 20,-11.79 -1.21,0.71 -2.44,1.4 -3.65,2.12 -7.91,4.23 -12.17,13.18 -13.1,21.81 3.31,-12.02 14.98,-19.54 26.52,-22.29 26.16,-4.38 51.46,-13.15 75.42,-24.4 6.9,-3.27 13.6,-6.97 19.88,-11.34 9.63,-6.3 20.13,-11.31 31.11,-14.75 -9.17,4.77 -18.05,10.15 -25.84,17 -12.45,11.17 -28.41,17.64 -44.54,21.36 5.51,-0.13 10.84,-1.59 16.1,-3.12 15.92,-4.81 31.13,-12.16 44.43,-22.18 z"
       inkscape:connector-curvature="0"
       style="fill:#fab994" />
    <path
       id="path26"
       d="m -634.28524,-87.05961 c 1.18,0.57 2.35,1.16 3.48,1.84 14.6,9.33 30.61,16.69 47.55,20.56 3.34,0.85 6.95,0.64 10.12,2.14 -13.33,0.48 -26.78,0.77 -40,-1.28 -4.25,-0.58 -8.34,-1.88 -12.58,-2.49 2.23,2.42 5.48,3.32 8.42,4.54 11.48,4.46 23.82,6.77 36.14,6.56 5.04,0.1 10.06,-0.64 15.11,-0.51 -14.98,4.37 -30.9,5.89 -46.4,3.78 4.21,3.15 9.56,4.17 14.54,5.56 14.06,3.46 28.69,1.83 42.65,-1.25 -13.04,4.88 -26.99,7.34 -40.88,7.98 -6.75,0.39 -13.34,-1.3 -20,-1.99 11.95,5.27 25.24,5.51 38.06,6.03 -16.93,2.63 -34.7,2.06 -50.99,-3.62 -3.99,-1.34 -7.57,-3.67 -11.59,-4.94 0.73,0.85 1.53,1.64 2.38,2.38 8.46,5.98 18.08,10.16 28.16,12.49 -5.79,0.7 -11.53,-0.57 -17.31,-0.68 8.57,4.6 18.8,3.32 28.19,3.48 -7.17,1.76 -14.69,1.77 -22.01,1.24 -5.3,-0.27 -10.31,-2.17 -15.52,-2.99 3.82,3.26 9.12,3.85 13.85,4.97 11.32,2.22 22.72,-0.37 33.61,-3.42 -9.82,4.87 -20.88,7.3 -31.82,7.27 -4.46,0.1 -8.79,-1.09 -13.22,-1.4 8.82,6.14 19.93,5.56 30.14,5.29 -13.15,3.75 -27.9,4.99 -40.67,-0.75 -6.6,-3.16 -12.78,-7.92 -16.27,-14.48 6.12,6.04 12.88,12.9 21.95,13.64 -5.12,-2.54 -10.37,-5.16 -14.1,-9.63 -3.79,-4.49 -7.78,-9.33 -8.92,-15.25 4.85,7.83 10.46,16.36 19.61,19.48 -2.6,-3.73 -6.39,-6.41 -8.92,-10.19 -4.33,-6.09 -8.12,-12.85 -9.56,-20.26 4.36,7.79 10.68,14.88 19.08,18.32 -3.08,-3.73 -6.7,-7.06 -9.07,-11.34 -4.42,-7.54 -7.93,-16.1 -7.84,-24.97 4.42,13.03 14.78,24.56 28.18,28.43 -2.23,-2.47 -5.35,-3.83 -7.77,-6.09 -4.91,-4.42 -8.98,-10.05 -10.66,-16.51 3.43,3.26 6.05,7.34 9.95,10.13 9.63,7.37 21.79,11.89 33.99,11.66 -15.08,-2.3 -30.68,-9.67 -37.91,-23.79 9.08,6.33 19.55,11.87 30.89,11.84 -15.1,-3.19 -29.45,-12.18 -37.11,-25.79 4.19,2.52 8.02,5.67 12.55,7.64 9.39,4.25 19.61,7.03 29.95,7.32 -3.22,-2 -6.96,-2.95 -10.13,-5.05 -6.64,-4.16 -13.12,-9.15 -17.3,-15.9 z"
       inkscape:connector-curvature="0"
       style="fill:#927054" />
    <path
       id="path28"
       d="m -253.75524,-81.94961 c 3.72,-0.53 7.48,-0.46 11.23,-0.35 -3.49,2.07 -7.54,1.43 -11.23,0.35 z"
       inkscape:connector-curvature="0"
       style="fill:#4a3e2f" />
    <path
       id="path30"
       d="m -266.69524,-73.26961 c 13.63,-5.75 29.48,-7.18 43.57,-2.22 -1.78,-0.27 -3.55,-0.57 -5.33,-0.64 -3.44,-0.25 -6.89,-0.22 -10.31,0.13 -8.27,0.89 -16.31,3.62 -23.53,7.73 16.75,-7.07 38.11,-6.56 52.11,6.08 -10.29,-3.64 -21.22,-5.11 -32.11,-4.26 5.28,0.47 10.71,0.8 15.65,2.92 7.18,2.91 12.96,8.37 17.65,14.41 6.05,7 9.52,15.76 12.19,24.51 -3.54,-7.05 -7.22,-14.31 -13.33,-19.52 2.36,3.78 5.17,7.36 6.56,11.66 2.27,6.03 1.67,12.69 3.95,18.72 1.51,4.91 4.51,9.11 7.38,13.3 -4.25,-2.64 -6.75,-7.05 -8.79,-11.46 1.79,8.02 5.73,15.29 10.07,22.19 -8.36,-5.62 -13.24,-14.84 -17.92,-23.47 1.93,10.92 7.82,21.68 17.49,27.53 6.81,4.67 12.6,11.02 15.96,18.61 -3.17,-3.98 -6.16,-8.37 -10.74,-10.87 -3.37,-2.09 -7.26,-3.02 -11.13,-3.62 4.26,1.56 8.8,3.31 11.56,7.13 2.54,3.04 3.59,6.9 4.51,10.67 1.52,6.03 6.01,10.56 10.26,14.82 -7.88,-3.15 -13.09,-10.85 -14.92,-18.93 1.25,10.85 6.24,21.46 14.94,28.3 -6.91,9.65 -8.7,22.16 -6.14,33.62 -0.46,-10.41 2.25,-21.5 9.72,-29.1 -6.17,10.69 -8.46,24.18 -3.58,35.82 1.72,4.61 5.92,7.58 8.22,11.84 2.69,4.84 4.18,10.24 5.08,15.68 -3.19,-4.19 -6.18,-8.62 -10.48,-11.78 8.15,11.72 9.11,26.75 7.72,40.53 -1.01,10.95 1.99,22.38 9.15,30.85 -1.09,1.32 -2.47,2.5 -3.11,4.13 -0.37,2.42 -0.16,4.89 0.05,7.32 -6.3,-9.88 -8.98,-21.66 -10.3,-33.18 -1.35,-9.87 0.09,-19.95 -2.06,-29.74 -4.07,-19.16 -13.27,-37.07 -15.12,-56.73 -1.05,-8.49 1.95,-17.15 -0.65,-25.51 -3.26,-14.15 -14.37,-24.3 -21.33,-36.56 -3.91,-6.66 -4.21,-14.55 -6.03,-21.89 -3.36,-15.38 -7.29,-31.3 -16.91,-44.1 -4.44,-6.08 -10.57,-11.33 -18.09,-12.94 -14.9,-2.92 -30.22,-0.93 -44.97,1.92 -2.33,0.42 -4.69,0.07 -7.01,-0.11 10.13,-4.38 19.94,-9.48 30.1,-13.79 z"
       inkscape:connector-curvature="0"
       style="fill:#fab994" />
    <path
       id="path32"
       d="m -238.76524,-75.99961 c 3.42,-0.35 6.87,-0.38 10.31,-0.13 -3.28,1.7 -6.94,1.31 -10.31,0.13 z"
       inkscape:connector-curvature="0"
       style="fill:#493e2f" />
    <path
       id="path34"
       d="m -319.59524,-61.38961 c 5.52,-1.4 10.89,-3.4 16.52,-4.38 -3.63,3.79 -8.43,6.06 -12.48,9.32 -1.55,0.18 -3.1,0.34 -4.64,0.52 7.98,0.98 15.92,-0.9 23.4,-3.55 2.32,0.18 4.68,0.53 7.01,0.11 14.75,-2.85 30.07,-4.84 44.97,-1.92 7.52,1.61 13.65,6.86 18.09,12.94 9.62,12.8 13.55,28.72 16.91,44.1 1.82,7.34 2.12,15.23 6.03,21.89 6.96,12.26 18.07,22.41 21.33,36.56 2.6,8.36 -0.4,17.02 0.65,25.51 1.85,19.66 11.05,37.57 15.12,56.73 2.15,9.79 0.71,19.87 2.06,29.74 1.32,11.52 4,23.3 10.3,33.18 1.97,7.48 0.7,15.49 -3.37,22.04 4.48,-4.09 6.98,-9.72 8.12,-15.59 0.58,10.04 -2.1,21 -9.96,27.82 7.76,-2.4 11.73,-9.96 14.29,-17.07 -0.89,8.96 -5.07,17.66 -11.79,23.7 3.19,-1.7 6.37,-3.5 9.15,-5.85 2.97,-2.37 5.83,-5.43 5.28,-9.55 2,1.3 -0.16,3.55 -0.05,5.37 0.2,9.04 2.86,17.83 5.64,26.38 -0.02,2.4 -0.63,4.77 -1.81,6.87 -3.72,6.75 -4.97,14.51 -5.65,22.1 0.28,1.73 0.25,4.03 2.28,4.72 1.42,-0.53 2.36,-1.82 3.42,-2.84 4.12,-4.68 9.47,-8 14.67,-11.33 3.58,-2.26 8.04,-4.12 9.55,-8.43 3.58,-8.85 2.81,-18.7 1.87,-27.98 -1.37,-10.33 0.38,-20.74 -0.73,-31.07 0.33,-0.56 0.98,-1.68 1.31,-2.23 0.95,4.44 1.91,8.89 3.35,13.22 2.88,8.51 4.07,17.5 4.69,26.44 0.35,4.13 -0.28,8.33 0.61,12.41 1.85,-4.59 1.88,-9.6 1.71,-14.47 -0.76,-13.56 5.97,-26.4 4.32,-40 -0.25,-5.69 -3.44,-10.51 -5.78,-15.5 3.6,2.62 5.67,6.69 7.55,10.62 0.42,6.17 0.65,12.36 0.68,18.55 -3.93,21.92 -1.18,44.31 -4.22,66.31 -0.84,11.22 -2.16,22.58 -6.05,33.21 -2.12,5.28 -4.89,10.6 -9.41,14.21 -5.19,3.88 -11.57,6.24 -18.07,6.36 -3.08,-3 -7.52,-4.53 -9.81,-8.31 -1.41,-2.18 -2.86,-4.32 -4.53,-6.28 1.14,-7.47 2.19,-14.96 3.46,-22.41 -0.75,-0.09 -2.24,-0.29 -2.98,-0.38 -5.48,35.98 -11.2,71.97 -19.06,107.52 -2.32,10.72 -5.2,21.33 -9.3,31.52 -2.13,1.52 -3.87,3.51 -4.89,5.93 -6.05,13.76 -13.85,26.65 -21.53,39.54 -12.93,20.92 -27.37,40.91 -43.26,59.69 -18.38,20.57 -36.76,41.52 -59.13,57.91 -20.03,14.93 -43.03,25.77 -67.27,31.77 -21.53,5.41 -44.05,8.89 -66.2,5.67 -32.79,-4.62 -62.56,-21.96 -86.61,-44.16 -2.43,-2.17 -4.41,-5.3 -7.95,-5.64 -25.1,-33.26 -45.17,-70.03 -62.8,-107.7 -8.75,-18.99 -16.83,-38.34 -22.99,-58.35 -11.17,-35.94 -20.11,-72.55 -28.36,-109.26 0.88,-3.07 0.97,-6.27 0.36,-9.39 -3.86,-24.56 -4.81,-49.59 -2.62,-74.36 -0.04,-7.19 0.89,-14.49 -0.69,-21.58 0.53,-6.82 1.96,-13.53 2.22,-20.37 0.25,-5.75 0.29,-11.5 0.67,-17.25 7.82,-2.85 15.1,-6.92 22.4,-10.89 7.12,-0.38 12.46,-5.82 19.32,-7.14 18.36,-4.43 37.11,0.53 55.1,4.34 13.5,2.62 27.14,5.07 40.94,4.93 4.74,0.02 10.15,0.21 13.77,-3.41 1.97,-1.36 4.72,-2.78 4.5,-5.59 -1.01,-9.12 -7.82,-15.91 -14.13,-21.91 6.35,2.41 11.73,6.69 16.13,11.8 -2.33,-5.03 -5.56,-9.65 -9.67,-13.4 -11.55,-10.45 -27.51,-14.57 -42.76,-15.13 7.23,2.34 14.32,5.49 20.3,10.27 -23.3,-6.71 -48.01,-9.74 -72.08,-5.84 -5.46,0.78 -10.8,2.18 -16.24,3.03 0.53,-2.78 2.24,-5.04 4.16,-7.02 -6.5,2.74 -12.54,6.34 -18.35,10.31 -0.63,-0.62 -1.26,-1.22 -1.88,-1.82 -0.95,0.95 -1.9,1.89 -2.84,2.85 0.84,-0.17 2.5,-0.49 3.34,-0.65 -0.82,0.78 -2.44,2.35 -3.26,3.13 1.02,-0.18 3.06,-0.55 4.08,-0.73 -8.92,5.71 -16.01,14 -20.87,23.37 3.6,-2.16 6.73,-4.97 10.19,-7.33 -2.95,4.78 -6.8,8.89 -10.68,12.91 -1.91,-5.89 0.17,-11.97 0.3,-17.96 0.71,-19.35 -0.66,-38.68 -2.02,-57.97 -0.67,-16.77 1.14,-34.79 11.23,-48.8 7.86,-11.4 21.29,-18 34.87,-19.29 9.98,-1.66 19.98,0.85 30,0.18 32.51,-1.35 63.12,-14.06 92.01,-28.09 14.72,-7.76 30.32,-13.69 46.1,-18.9 21.28,-7.19 42.93,-13.39 64.97,-17.78 16.07,-2.41 31.76,-6.68 47.47,-10.75 z"
       inkscape:connector-curvature="0"
       style="fill:#ffc9a5" />
    <path
       id="path36"
       d="m -196.17524,-61.07961 c 3.17,4 6.98,7.78 12.13,8.99 11.53,2.91 23.22,-0.93 34.5,-3.24 11.78,-2.81 25.29,0.68 33.69,9.53 -4.95,-2.21 -9.79,-4.89 -15.27,-5.49 -10.85,-1.36 -22.16,0.38 -32.08,4.98 7.68,-1.32 15.46,-3.55 23.32,-1.99 3.59,0.84 7.55,1.63 10.19,4.44 -4.76,-0.89 -9.6,-2.05 -14.45,-1.1 -8.53,0.73 -16.36,5.38 -25.04,4.77 -3.63,0.03 -6.91,-1.69 -10.27,-2.8 3.05,4.17 8.18,5.68 12.52,8.08 -6.89,0.23 -13.24,-3.67 -18.16,-8.16 -5.01,-5 -9.26,-11.11 -11.08,-18.01 z"
       inkscape:connector-curvature="0"
       style="fill:#927054" />
    <path
       id="path38"
       d="m -725.88524,-50.71961 c 0.52,0.53 0.52,0.53 0,0 z"
       inkscape:connector-curvature="0"
       style="fill:#1c2842" />
    <path
       id="path40"
       d="m -191.27524,-38.99961 c 5.05,7.96 13.88,12.68 23.11,13.77 12.95,2.57 26.43,-2.27 39.08,2.26 7.69,2.75 14.88,7.88 19.14,14.94 -9.42,-8.83 -22.46,-12.47 -35.14,-12.64 -5.33,0.07 -10.91,-0.73 -16.01,1.2 11.47,0.09 23.38,1.25 33.64,6.79 2.48,1.21 4.86,2.72 6.54,4.96 -4.01,-1.54 -7.9,-3.59 -12.23,-4.09 -11.66,-1.62 -23.6,-1.05 -35.1,-3.84 -11.12,-2.73 -20.64,-12.11 -23.03,-23.35 z"
       inkscape:connector-curvature="0"
       style="fill:#927054" />
    <path
       id="path42"
       d="m -184.16524,-17.85961 c 13.14,11.58 27.75,22.58 45.1,26.73 4.32,1.26 8.93,0.4 13.24,1.65 -11.29,3.09 -22.79,-1.23 -32.92,-5.99 1.96,3.1 5.38,4.74 8.35,6.71 10.02,6.19 21.88,8.61 33.54,8.69 -1.1,1.25 -2.86,1.12 -4.34,1.32 -8.24,0.58 -16.59,-0.9 -24.25,-3.96 -3.64,-1.39 -6.88,-3.63 -10.59,-4.85 2.31,3.8 6.07,6.36 9.61,8.91 8.66,6.04 18.47,10.2 28.5,13.37 6.86,2 13.52,5.47 18.37,10.81 2.89,3.1 3.73,7.47 3.07,11.57 -1.43,-2.81 -1.96,-6.12 -4.23,-8.44 -4.66,-5.19 -11.76,-7.04 -18.42,-7.91 -8.96,-1.31 -17.09,-5.39 -25.29,-8.94 4.19,5.02 9.32,9.42 11.95,15.57 2.64,5.24 3.24,12.27 -0.68,17.05 0.1,-3.03 0.83,-6.2 -0.33,-9.11 -2.27,-5.86 -6.89,-10.4 -11.73,-14.23 -5.8,-4.37 -11.77,-8.8 -18.58,-11.44 2.22,3.09 5.34,5.41 7.44,8.6 4.16,6 6.5,13.59 4.76,20.86 -0.69,-6.25 -1.41,-13.7 -7.01,-17.63 3.45,6.21 6.17,13.74 2.84,20.63 -0.27,-4.69 0.74,-10.09 -2.53,-13.98 -3.18,-3.17 -7.14,-5.51 -9.99,-9.03 -5.25,-6.16 -9.82,-13.74 -9.67,-22.09 1.89,4.61 3.01,9.8 6.68,13.42 -1.11,-4.74 -2.18,-9.58 -1.44,-14.47 2.95,4.2 6.57,7.89 10.77,10.84 3.67,2.5 7.18,5.48 11.49,6.82 -2.1,-2.95 -5.03,-5.12 -7.45,-7.76 -5.37,-5.68 -10.2,-11.84 -14.56,-18.31 -2.05,-3.11 -4.46,-6.05 -5.7,-9.6 2.59,2.46 4.65,5.4 7.02,8.07 5.3,6.04 11.34,11.44 17.92,16.08 2.97,2.04 5.92,4.26 9.45,5.24 -2.26,-2.4 -5.19,-3.94 -7.78,-5.91 -11.91,-9.09 -21.55,-20.83 -29.53,-33.43 -1.23,-1.85 -2.23,-3.82 -3.08,-5.86 z"
       inkscape:connector-curvature="0"
       style="fill:#927054" />
    <path
       id="path44"
       d="m -734.86524,-10.70961 c 0.5,0.55 0.5,0.55 0,0 z"
       inkscape:connector-curvature="0"
       style="fill:#0f2442" />
    <path
       id="path46"
       d="m -658.82524,16.48039 c 3.48,-1.79 6.92,-3.92 10.87,-4.42 -12.04,8.6 -23.84,19.07 -29.38,33.15 6.23,-6.7 12.78,-13.73 21.37,-17.33 -6.71,5.75 -13.53,11.69 -17.79,19.6 -2.71,5.18 -5.23,10.78 -5.32,16.73 3.68,-8.68 9.51,-16.87 17.96,-21.41 -2.53,3.23 -5.82,5.84 -7.98,9.37 -3.53,5.3 -5,11.67 -5.44,17.94 -0.55,9.75 -3.35,19.49 -8.24,27.93 2.08,-11.34 0.05,-22.78 -1.49,-34.04 -1.19,-8.92 2.06,-17.55 6.4,-25.15 -5.36,3.9 -7.54,10.44 -9.98,16.31 -0.42,-12.14 5.47,-23.69 12.6,-33.17 -1.21,4.04 -3.91,7.54 -4.44,11.8 1.15,-0.91 2.25,-1.89 3.18,-3.03 4.73,-6.01 11.05,-10.57 17.68,-14.28 z"
       inkscape:connector-curvature="0"
       style="fill:#927054" />
    <path
       id="path48"
       d="m -724.50524,21.20039 c 8.12,1.2 16.31,0.27 24.47,0.35 -6.96,1.33 -14.05,2.69 -21.17,2.05 -2.06,-0.04 -4.22,-0.53 -6.2,0.29 0.04,0.24 0.13,0.72 0.17,0.96 -1.77,-0.76 -4,-0.85 -4.96,-2.84 5.68,0.15 11.32,1.69 17,0.62 -3.13,-0.29 -6.26,-0.67 -9.31,-1.43 z"
       inkscape:connector-curvature="0"
       style="fill:#e9ac1d" />
    <path
       id="path50"
       d="m -722.32524,33.51039 c 6.83,1.63 14.39,1.81 20.54,-2.05 0.43,0.7 1.28,2.11 1.71,2.81 -7.17,2.62 -15.44,3.21 -22.25,-0.76 z"
       inkscape:connector-curvature="0"
       style="fill:#4c413d" />
    <path
       id="path52"
       d="m -700.11524,45.98039 c -2.4,0.19 -0.53,-3.17 0.38,-0.77 z"
       inkscape:connector-curvature="0"
       style="fill:#252c42" />
    <path
       id="path54"
       d="m -653.71524,75.30039 c 0.95,-4.9 2.56,-9.64 4.23,-14.33 -0.94,5.43 -2.31,10.78 -2.93,16.27 -0.32,-0.48 -0.98,-1.46 -1.3,-1.94 z"
       inkscape:connector-curvature="0"
       style="fill:#66503e" />
    <path
       id="path56"
       d="m -242.54524,101.39039 c 4.81,-1.2 9.69,0.4 14.33,1.64 9.48,2.92 18.66,6.85 27.27,11.79 6.19,3.5 11.35,9.29 13.22,16.24 1.1,3.6 -0.23,8.17 -4.2,9.21 -5.58,1.25 -11.32,-0.02 -16.86,-0.89 -12.75,-2.24 -25.77,-7.23 -38.79,-4.12 0.38,-1.05 0.91,-2.29 2.26,-2.21 6.8,0.93 13.59,-0.85 20.42,-0.62 -8.61,-1.45 -17.41,-1.4 -26.09,-0.81 0.11,-0.81 0.35,-2.42 0.47,-3.22 -0.46,0.56 -1.36,1.68 -1.82,2.25 -0.02,-0.37 -0.08,-1.11 -0.11,-1.48 -18.68,4.16 -38.21,1.5 -56.71,6.77 -12.34,3.74 -24.99,6.51 -37.82,7.84 3.4,-2.2 6.97,-4.17 10.06,-6.82 -5.89,2.31 -11.13,6 -17.13,8.08 2.24,-2.01 4.5,-4.05 6.25,-6.52 -5.68,3.8 -11.43,7.56 -17.86,9.98 -7.63,2.82 -15.97,4.27 -24.05,2.72 -4.06,-0.95 -8.44,-3.03 -10,-7.19 -2.07,-4.91 0.19,-10.15 1.85,-14.83 0.13,2.21 0.36,4.41 0.67,6.6 3.09,-4.13 5.59,-8.82 9.78,-12.01 10.39,-8.96 24.4,-11.05 37.32,-14.08 15.09,-2.87 30.59,-5.46 45.98,-3.87 -3.4,0.64 -6.85,0.98 -10.24,1.66 6.74,0.81 13.22,-1.97 19.94,-1.9 13.04,1.14 26.15,0.51 39.22,0.81 3.35,-0.11 6.88,0.46 10.08,-0.81 0.21,-0.16 0.62,-0.49 0.82,-0.65 -5.12,-0.54 -10.43,-0.39 -15.28,-2.33 5.69,-0.17 11.42,-0.01 17.02,-1.23 z"
       inkscape:connector-curvature="0"
       style="fill:#66503e" />
    <path
       id="path60"
       d="m -357.30524,107.85039 c 18.13,-5.56 37.38,-5.88 56.1,-3.94 6.82,0.78 13.73,0.08 20.54,0.73 l 0.78,0.93 c -4.84,0.04 -9.68,-0.11 -14.52,0.03 -6.72,-0.07 -13.2,2.71 -19.94,1.9 3.39,-0.68 6.84,-1.02 10.24,-1.66 -15.39,-1.59 -30.89,1 -45.98,3.87 -12.92,3.03 -26.93,5.12 -37.32,14.08 -4.19,3.19 -6.69,7.88 -9.78,12.01 -0.31,-2.19 -0.54,-4.39 -0.67,-6.6 -0.01,-0.21 -0.04,-0.64 -0.05,-0.86 10.71,-11.29 26.09,-16.15 40.6,-20.49 z"
       inkscape:connector-curvature="0"
       style="fill:#fbba94" />
    <path
       id="path62"
       d="m -294.40524,105.60039 c 4.84,-0.14 9.68,0.01 14.52,-0.03 11.59,0.08 23.19,0.38 34.78,0.03 -3.2,1.27 -6.73,0.7 -10.08,0.81 -13.07,-0.3 -26.18,0.33 -39.22,-0.81 z"
       inkscape:connector-curvature="0"
       style="fill:#000000" />
    <path
       id="path64"
       d="m -122.19524,121.16039 c 9.79,-1.89 16.51,-9.7 23.18,-16.41 -4.44,10.49 -12.04,19.29 -19.5,27.75 5.5,-2.08 9.17,-6.89 13.52,-10.6 -2.12,6.13 -7.02,10.71 -9.71,16.54 5.55,-3.04 7.61,-9.57 12.22,-13.6 -2.02,6.3 -5.55,11.92 -8.31,17.88 4.01,-1.99 6.38,-5.93 9.67,-8.79 -2.89,9.53 -10.56,19.31 -21.18,20.01 2.97,-1.95 6.7,-3.12 8.6,-6.36 -4.38,1.8 -8.2,4.8 -12.82,6.06 -3.18,0.82 -6.6,2.31 -9.86,1.16 4.85,-1.55 9.98,-2.59 14.24,-5.53 4.16,-2.85 8.53,-6.07 10.6,-10.83 -4.55,2.93 -8.55,6.84 -13.81,8.55 -4.08,1.3 -8.53,3.02 -12.83,1.81 8.27,-2.75 17.08,-6.43 22.09,-13.95 -5.8,2.82 -11.57,6.15 -18.13,6.8 -3.81,0.3 -7.96,0.18 -11.16,-2.17 12.11,0.7 23.06,-7.08 29.76,-16.61 -4.49,1.2 -9.17,2.71 -13.83,1.52 -4.32,-1.03 -8.18,-3.71 -10.69,-7.36 5.36,3.24 11.59,5.7 17.95,4.13 z"
       inkscape:connector-curvature="0"
       style="fill:#927054" />
    <path
       id="path66"
       d="m -623.19524,124.07039 c 6.05,-6.43 13.83,-11.33 21.96,-14.8 -7.96,3.72 -14.72,9.43 -20.79,15.71 -0.29,-0.23 -0.88,-0.68 -1.17,-0.91 z"
       inkscape:connector-curvature="0"
       style="fill:#222222" />
    <path
       id="path68"
       d="m -309.15524,135.94039 c 18.5,-5.27 38.03,-2.61 56.71,-6.77 0.03,0.37 0.09,1.11 0.11,1.48 0.46,-0.57 1.36,-1.69 1.82,-2.25 -0.12,0.8 -0.36,2.41 -0.47,3.22 8.68,-0.59 17.48,-0.64 26.09,0.81 -6.83,-0.23 -13.62,1.55 -20.42,0.62 -1.35,-0.08 -1.88,1.16 -2.26,2.21 13.02,-3.11 26.04,1.88 38.79,4.12 -7.76,1.26 -15.62,0.18 -23.4,-0.3 -6.7,-0.57 -13.37,-1.49 -19.97,-2.79 -9.6,-1.81 -19.37,-0.87 -29.02,-0.2 -23.27,2.12 -46.25,6.57 -69.05,11.62 -5.07,0.82 -10.36,2.47 -15.43,0.79 6.43,-2.42 12.18,-6.18 17.86,-9.98 -1.75,2.47 -4.01,4.51 -6.25,6.52 6,-2.08 11.24,-5.77 17.13,-8.08 -3.09,2.65 -6.66,4.62 -10.06,6.82 12.83,-1.33 25.48,-4.1 37.82,-7.84 z"
       inkscape:connector-curvature="0"
       style="fill:#f9b893" />
    <path
       id="path70"
       d="m -582.00524,147.67039 c 0.08,-0.41 0.25,-1.23 0.34,-1.64 15.72,2.31 31.33,5.5 46.56,10.06 8.38,3 17.22,4.44 26,5.69 -3.74,-1.75 -7.52,-3.42 -11.16,-5.36 8.38,2.38 17.03,4.33 25.8,3.3 -3.62,3.62 -9.03,3.43 -13.77,3.41 -13.8,0.14 -27.44,-2.31 -40.94,-4.93 -17.99,-3.81 -36.74,-8.77 -55.1,-4.34 -6.86,1.32 -12.2,6.76 -19.32,7.14 6.93,-3.97 13.08,-9.6 20.99,-11.59 6.69,-1.99 13.72,-1.33 20.6,-1.74 z"
       inkscape:connector-curvature="0"
       style="fill:#fab994" />
    <path
       id="path72"
       d="m -645.95524,166.44039 c 3.65,-1.96 6.79,-4.67 9.97,-7.3 -2.2,4.55 -6.05,8.06 -9.96,11.15 -0.03,-1.29 -0.04,-2.57 -0.01,-3.85 z"
       inkscape:connector-curvature="0"
       style="fill:#ffc9a5" />
    <path
       id="path74"
       d="m -379.31524,172.88039 c 17.82,-7.47 37.09,-10.35 56.14,-12.76 1.69,-0.3 3.41,-0.06 5.11,0.19 -6.96,2.53 -14.49,3.37 -21.21,6.59 5.37,0.11 10.49,-1.73 15.79,-2.32 22.55,-3.04 46.55,-0.99 66.94,9.74 1.39,0.79 3.36,1.51 3.13,3.53 -14.39,-7.26 -30.56,-11.06 -46.7,-10.49 -18.86,0.29 -37.27,6.15 -53.95,14.69 25.63,-11.19 54.92,-16.71 82.42,-9.63 -3.08,1.38 -6.32,0.04 -9.47,-0.19 -12.35,-0.82 -24.92,-0.35 -36.92,2.9 -7.94,2.13 -16.08,4.91 -22.14,10.71 17.98,-4.29 36.7,-6.06 55.1,-3.67 2.16,0.39 5.84,0.07 6.26,2.96 -15.8,-2.05 -32.05,-1.54 -47.41,2.92 -13.66,3.94 -26.68,10.27 -38.05,18.8 -3.12,2.27 -6.02,4.93 -7.82,8.39 4.07,3.53 10.37,3.4 15.28,2 1.86,-0.42 3.76,-0.58 5.68,-0.48 3.27,0.56 6.58,0.84 9.91,0.92 9.37,0.22 18.77,1.28 28.14,0.37 7.67,-0.6 15.47,-0.26 22.98,-2.21 3.18,-0.2 6.18,-1.32 8.98,-2.8 4.91,-1.87 10.1,-2.92 14.96,-4.96 3.67,-1.37 7.12,-3.4 10.99,-4.22 2.77,-0.64 5.51,0.38 8.16,1.08 -5.27,-6.83 -11.96,-12.59 -19.79,-16.27 3.4,-1.28 6.4,1.44 9.36,2.73 7.71,4.58 15.4,9.67 21.27,16.53 -6.6,-0.9 -13.74,-2.13 -19.93,1.11 -16.2,8.58 -34.48,12.63 -52.71,13.5 -7.25,0.68 -14.95,0.05 -21.69,3.27 -1.45,2.49 1.91,4.58 3.72,5.78 10.64,4.32 22.07,6.44 33.52,6.89 8.16,1.21 16.33,-1.36 24.49,-0.21 -5.94,2.03 -12.21,2.61 -18.43,2.92 -15.76,1.71 -31.51,-1.12 -47.12,-3 11.64,6.06 24.29,10.6 37.46,11.54 -22.57,3.31 -45.95,1.63 -67.67,-5.41 -10.35,-3.4 -19.92,-9.75 -25.86,-19.01 -4.98,-7.69 -6.44,-17.29 -5.01,-26.25 -4.29,3.29 -4.96,9.08 -8.18,13.17 1.5,-8.91 4.4,-17.66 9.1,-25.41 2.38,-4.07 5.81,-7.35 8.91,-10.85 1.73,-1.6 4.16,-2.12 6.26,-3.09 z"
       inkscape:connector-curvature="0"
       style="fill:#fab994" />
    <path
       id="path76"
       d="m -127.27524,171.15039 c 3.79,-3.32 7.16,-7.44 12.11,-9.08 -2.24,2.47 -4.87,4.59 -6.77,7.36 -2.94,4.15 -4.9,8.93 -8.04,12.96 -2.73,3.51 -6.93,5.52 -11.16,6.59 4.24,-3.33 7.59,-7.76 8.85,-13.07 -4.93,3.64 -10.93,5.33 -16.98,5.83 2.73,-2.36 6.23,-3.53 9.02,-5.79 5.8,-4.52 11.26,-9.6 17.87,-12.96 -1.83,2.6 -4.02,5.04 -4.9,8.16 z"
       inkscape:connector-curvature="0"
       style="fill:#917054" />
    <path
       id="path78"
       d="m -354.06524,182.05039 c 16.68,-8.54 35.09,-14.4 53.95,-14.69 16.14,-0.57 32.31,3.23 46.7,10.49 6.87,3.61 13.57,7.77 19.1,13.25 -10.77,-9.04 -23.75,-15.2 -37.33,-18.68 -27.5,-7.08 -56.79,-1.56 -82.42,9.63 z"
       inkscape:connector-curvature="0"
       style="fill:#744734" />
    <path
       id="path80"
       d="m -552.22524,170.62039 c 17.03,-2.83 35,-2.16 51.18,4.24 8.31,3.43 16.6,7.59 22.9,14.15 1.1,1.04 1.91,2.96 3.77,2.34 9.06,15.29 11.85,33.5 12.3,51.03 -2.26,-5.7 -2.37,-12.04 -4.96,-17.62 -2.49,3.88 -5.27,7.64 -8.97,10.47 -15.53,12.33 -34.79,18.72 -53.84,23.27 -12.59,2.68 -25.77,3.96 -38.52,1.86 9.62,-0.42 18.71,-4.06 27.26,-8.25 4.91,-2.66 9.96,-5.24 14.15,-8.99 -5.12,1.31 -9.82,3.79 -14.88,5.26 -7.7,2.19 -15.57,4.44 -23.67,3.87 2.72,-1.61 5.96,-1.72 8.94,-2.6 12.71,-3.55 24.8,-9.48 35.32,-17.44 -12.59,1.38 -25.29,3.25 -37.99,2.03 -7.77,-0.41 -15.86,-1.45 -22.6,-5.64 -2.84,-1.94 -5.31,-4.61 -6.22,-8 4.31,1.79 7.68,5.24 12.04,6.94 3.59,1.45 7.46,1.89 11.26,2.49 l -2.95,-2.38 c 8.2,1.29 16.13,4.28 24.53,4.28 12.31,0.89 24.39,-3.07 35.18,-8.69 3.23,-1.88 6.74,-3.99 8.4,-7.48 1.17,-2.92 -0.86,-5.57 -2.78,-7.55 3.43,2.15 6.99,4.37 9.45,7.67 1.11,1.46 0.87,3.73 -0.42,5.02 -2.36,2.72 -5.75,4.16 -8.85,5.87 7.1,-1.56 15.36,-2.1 20.69,-7.62 -12.23,-11.8 -28.44,-18.23 -44.36,-23.36 -13.77,-4.49 -28.72,-3.34 -42.37,0.98 1.69,-3.26 5.55,-4.01 8.68,-5.21 9.69,-3.37 20.07,-4.52 30.28,-3.82 3.92,0.09 8.23,2.44 11.88,0.1 0.32,-0.03 0.97,-0.07 1.29,-0.09 -19.18,-4.79 -39.36,-8.92 -59.06,-4.85 -11.09,2.13 -21.95,9.23 -25.7,20.28 -1.33,3.17 -4.14,5.4 -6.31,7.98 -0.77,-7.18 3.34,-13.98 8.24,-18.88 10.21,-9.03 23.49,-13.96 36.77,-16.25 15.03,-2.49 30.26,-0.24 45,2.8 -10.59,-6.15 -23.2,-6.65 -35.06,-8.21 z"
       inkscape:connector-curvature="0"
       style="fill:#fab994" />
    <path
       id="path82"
       d="m -400.75524,195.40039 c 3.25,-7.65 8.18,-14.78 15.18,-19.43 -3.1,3.5 -6.53,6.78 -8.91,10.85 -4.7,7.75 -7.6,16.5 -9.1,25.41 -3.21,14.47 -3.05,29.39 -3.17,44.12 l 0.97,2.04 c -0.6,0.17 -1.22,0.17 -1.78,-0.07 0.7,-4.41 -0.2,-8.83 -0.18,-13.25 -0.69,-16.75 0.37,-34.06 6.99,-49.67 z"
       inkscape:connector-curvature="0"
       style="fill:#cc8863" />
    <path
       id="path84"
       d="m -485.17524,178.99039 c 11.75,6.68 20.57,18.68 22.94,32.05 1.53,9.24 1.91,18.63 1.92,27.99 -0.12,5.71 -0.17,11.49 -1.46,17.09 -0.09,-4.58 -0.04,-9.17 -0.3,-13.74 -0.45,-17.53 -3.24,-35.74 -12.3,-51.03 -2.81,-4.77 -6.89,-8.53 -10.8,-12.36 z"
       inkscape:connector-curvature="0"
       style="fill:#cd8a65" />
    <path
       id="path86"
       d="m -575.16524,182.90039 c 19.7,-4.07 39.88,0.06 59.06,4.85 -0.32,0.02 -0.97,0.06 -1.29,0.09 -17.51,-4.18 -35.88,-6.83 -53.77,-3.55 -11.72,2.29 -23.65,8.12 -29.7,18.89 3.75,-11.05 14.61,-18.15 25.7,-20.28 z"
       inkscape:connector-curvature="0"
       style="fill:#744734" />
    <path
       id="path88"
       d="m -326.22524,188.05039 c 15.36,-4.46 31.61,-4.97 47.41,-2.92 4.15,0.59 8.19,1.82 12.01,3.54 7.83,3.68 14.52,9.44 19.79,16.27 -2.65,-0.7 -5.39,-1.72 -8.16,-1.08 -3.87,0.82 -7.32,2.85 -10.99,4.22 -4.86,2.04 -10.05,3.09 -14.96,4.96 5.29,-2.87 11.06,-4.74 16.34,-7.61 2.27,-1.35 5.45,-4.21 3.07,-6.89 -3.12,-2.87 -7.26,-4.26 -11.11,-5.86 0.01,-1.7 -0.52,-1.89 -1.58,-0.56 -0.27,-0.13 -0.82,-0.4 -1.09,-0.53 0.13,-1.59 -2.16,-2.28 -2.62,-0.61 l -0.26,-0.17 c -1.63,-3.72 -5.09,-0.44 -5.25,2.26 -0.39,-1.17 -0.84,-2.32 -1.26,-3.47 -12.36,-2.46 -25.4,-3.55 -37.71,-0.18 -0.22,0.64 -0.66,1.92 -0.88,2.56 -0.49,-0.15 -1.47,-0.46 -1.97,-0.62 -0.06,-0.27 -0.19,-0.82 -0.26,-1.09 -0.13,-0.56 -0.39,-1.67 -0.52,-2.22 z"
       inkscape:connector-curvature="0"
       style="fill:#60443c" />
    <path
       id="path90"
       d="m -322.59524,189.42039 c 12.31,-3.37 25.35,-2.28 37.71,0.18 0.42,1.15 0.87,2.3 1.26,3.47 0.68,5.77 0.56,12.31 -3.59,16.86 -6.04,7.62 -17.14,7.89 -25.8,5.64 -3.48,-1.96 -6.16,-5.15 -8.33,-8.44 -2.93,-4.47 -2.89,-10.06 -2.13,-15.15 0.22,-0.64 0.66,-1.92 0.88,-2.56 z"
       inkscape:connector-curvature="0"
       style="fill:#6d5b52" />
    <path
       id="path92"
       d="m -105.90524,186.96039 c 0.89,0.51 1.8,1.01 2.7,1.56 2.34,4.99 5.53,9.81 5.78,15.5 1.65,13.6 -5.08,26.44 -4.32,40 0.17,4.87 0.14,9.88 -1.71,14.47 -0.89,-4.08 -0.26,-8.28 -0.61,-12.41 -0.62,-8.94 -1.81,-17.93 -4.69,-26.44 -1.44,-4.33 -2.4,-8.78 -3.35,-13.22 3.39,-5.99 5.22,-12.68 6.2,-19.46 z"
       inkscape:connector-curvature="0"
       style="fill:#df9e7a" />
    <path
       id="path94"
       d="m -364.27524,206.85039 c 11.37,-8.53 24.39,-14.86 38.05,-18.8 0.13,0.55 0.39,1.66 0.52,2.22 -6.46,2.33 -13.01,4.55 -19.03,7.94 -5.75,2.8 -11.24,6.14 -16.44,9.87 -1.67,1.41 -4.08,3.02 -3.68,5.54 1.67,2.74 5.22,2.99 8.04,3.62 -4.91,1.4 -11.21,1.53 -15.28,-2 1.8,-3.46 4.7,-6.12 7.82,-8.39 z"
       inkscape:connector-curvature="0"
       style="fill:#62453d" />
    <path
       id="path96"
       d="m -308.17524,191.27039 c -0.06,-2.36 3.28,-2.28 4.97,-2.38 4.95,-0.03 8.41,4.7 8.31,9.38 l -1.45,-0.19 -0.04,-0.39 -0.34,-0.03 -0.21,0.34 c -1.56,1.94 -3.41,4.11 -2.25,6.76 l 0.13,0.77 c -2.48,0.11 -5.05,0.59 -7.48,-0.1 -3.38,-1.1 -4.82,-4.61 -6.58,-7.36 0.24,-0.16 0.73,-0.47 0.97,-0.63 1.8,-0.76 2.75,-2.4 3.13,-4.25 0.21,-0.48 0.63,-1.44 0.84,-1.92 z"
       inkscape:connector-curvature="0"
       style="fill:#4c413d" />
    <path
       id="path98"
       d="m -283.62524,193.07039 c 0.16,-2.7 3.62,-5.98 5.25,-2.26 -0.91,-0.15 -2.74,-0.45 -3.65,-0.6 2.85,9.23 -0.49,19.68 -8.08,25.63 -7.51,1.95 -15.31,1.61 -22.98,2.21 -4.39,-2.44 -8.4,-5.78 -10.55,-10.41 -2.74,-4.98 -2.59,-10.83 -1.81,-16.28 0.5,0.16 1.48,0.47 1.97,0.62 -0.76,5.09 -0.8,10.68 2.13,15.15 2.17,3.29 4.85,6.48 8.33,8.44 8.66,2.25 19.76,1.98 25.8,-5.64 4.15,-4.55 4.27,-11.09 3.59,-16.86 z"
       inkscape:connector-curvature="0"
       style="fill:#43352f" />
    <path
       id="path100"
       d="m -344.73524,198.21039 c 6.02,-3.39 12.57,-5.61 19.03,-7.94 0.07,0.27 0.2,0.82 0.26,1.09 -0.78,5.45 -0.93,11.3 1.81,16.28 2.15,4.63 6.16,7.97 10.55,10.41 -9.37,0.91 -18.77,-0.15 -28.14,-0.37 -3.33,-0.08 -6.64,-0.36 -9.91,-0.92 -3.11,-1.14 -6.57,-3.9 -5.31,-7.64 1.88,-5.3 7.67,-7.51 11.71,-10.91 z"
       inkscape:connector-curvature="0"
       style="fill:#ffffff" />
    <path
       id="path102"
       d="m -316.03524,193.07039 c 0.24,-3.36 5.35,-3.7 6.51,-0.7 l 0.51,0.82 c -0.38,1.85 -1.33,3.49 -3.13,4.25 -2.26,-0.06 -4.54,-1.93 -3.89,-4.37 z"
       inkscape:connector-curvature="0"
       style="fill:#ffffff" />
    <path
       id="path104"
       d="m -278.11524,190.98039 c 0.46,-1.67 2.75,-0.98 2.62,0.61 -0.65,-0.15 -1.96,-0.46 -2.62,-0.61 z"
       inkscape:connector-curvature="0"
       style="fill:#481101" />
    <path
       id="path106"
       d="m -309.08524,191.38039 0.91,-0.11 c -0.21,0.48 -0.63,1.44 -0.84,1.92 l -0.51,-0.82 z"
       inkscape:connector-curvature="0"
       style="fill:#2c0f0a" />
    <path
       id="path108"
       d="m -282.02524,190.21039 c 0.91,0.15 2.74,0.45 3.65,0.6 l 0.26,0.17 c 0.66,0.15 1.97,0.46 2.62,0.61 0.27,0.13 0.82,0.4 1.09,0.53 0.39,0.14 1.19,0.42 1.58,0.56 3.85,1.6 7.99,2.99 11.11,5.86 2.38,2.68 -0.8,5.54 -3.07,6.89 -5.28,2.87 -11.05,4.74 -16.34,7.61 -2.8,1.48 -5.8,2.6 -8.98,2.8 7.59,-5.95 10.93,-16.4 8.08,-25.63 z"
       inkscape:connector-curvature="0"
       style="fill:#ffffff" />
    <path
       id="path110"
       d="m -274.40524,192.12039 c 1.06,-1.33 1.59,-1.14 1.58,0.56 -0.39,-0.14 -1.19,-0.42 -1.58,-0.56 z"
       inkscape:connector-curvature="0"
       style="fill:#440b00" />
    <path
       id="path112"
       d="m -568.23524,196.77039 c 13.65,-4.32 28.6,-5.47 42.37,-0.98 15.92,5.13 32.13,11.56 44.36,23.36 -5.33,5.52 -13.59,6.06 -20.69,7.62 3.1,-1.71 6.49,-3.15 8.85,-5.87 1.29,-1.29 1.53,-3.56 0.42,-5.02 -2.46,-3.3 -6.02,-5.52 -9.45,-7.67 -4.31,-2.76 -9.16,-4.52 -13.87,-6.46 -1.15,-0.68 -2.32,0.2 -3.36,0.63 -2.15,-2.49 -5.55,-2.81 -8.57,-3.4 -9.45,-1.77 -19.26,-2.49 -28.77,-0.76 -1.06,1.93 -2.14,3.84 -3.09,5.83 -0.23,-0.69 -0.7,-2.07 -0.93,-2.76 -0.5,-0.06 -1.48,-0.18 -1.97,-0.24 -1.24,-1.21 -1.78,-0.99 -1.62,0.65 -1.44,0.44 -2.87,0.92 -4.3,1.39 -1.54,-1.83 -3.86,-0.57 -4,1.59 -3.96,2.17 -8.25,4.18 -11.01,7.9 -1.61,1.89 -1.26,4.95 0.5,6.64 4.05,4.46 9.84,7.16 15.66,8.43 l 2.95,2.38 c -3.8,-0.6 -7.67,-1.04 -11.26,-2.49 -4.36,-1.7 -7.73,-5.15 -12.04,-6.94 -4.92,-1.59 -9.66,2.31 -14.45,1.43 -0.22,-0.28 -0.65,-0.84 -0.87,-1.12 5.33,-3.61 9.94,-8.08 14.17,-12.9 5.96,-5.35 13.53,-8.53 20.97,-11.24 z"
       inkscape:connector-curvature="0"
       style="fill:#61453d" />
    <path
       id="path114"
       d="m -556.94524,198.22039 c 9.51,-1.73 19.32,-1.01 28.77,0.76 3.02,0.59 6.42,0.91 8.57,3.4 3.34,9.38 -1.94,20.89 -11.11,24.71 -7.93,3.41 -18.01,1.94 -24.09,-4.37 -4.64,-4.93 -6.33,-12.07 -5.23,-18.67 0.95,-1.99 2.03,-3.9 3.09,-5.83 z"
       inkscape:connector-curvature="0"
       style="fill:#6d5b52" />
    <path
       id="path116"
       d="m -296.72524,197.66039 0.34,0.03 0.04,0.39 -0.59,-0.08 z"
       inkscape:connector-curvature="0"
       style="fill:#0b0000" />
    <path
       id="path118"
       d="m -361.17524,208.08039 c 5.2,-3.73 10.69,-7.07 16.44,-9.87 -4.04,3.4 -9.83,5.61 -11.71,10.91 -1.26,3.74 2.2,6.5 5.31,7.64 -1.92,-0.1 -3.82,0.06 -5.68,0.48 -2.82,-0.63 -6.37,-0.88 -8.04,-3.62 -0.4,-2.52 2.01,-4.13 3.68,-5.54 z"
       inkscape:connector-curvature="0"
       style="fill:#ffc8a5" />
    <path
       id="path120"
       d="m -296.93524,198.00039 0.59,0.08 1.45,0.19 c 2.55,-0.2 4.74,2.24 4.43,4.75 0,2.59 -2.61,3.75 -4.67,4.5 -1.45,-0.76 -3.07,-1.38 -4.05,-2.76 -1.16,-2.65 0.69,-4.82 2.25,-6.76 z"
       inkscape:connector-curvature="0"
       style="fill:#ffffff" />
    <path
       id="path122"
       d="m -545.58524,201.29039 c 3.51,-2.25 8.61,-2.96 11.76,0.3 1.89,2.38 3,5.37 5.48,7.29 -2.1,-0.65 -3.81,0.85 -5.51,1.8 -2.51,-0.61 -2.48,2.47 -2.28,4.15 -0.67,2.46 -4.14,1.68 -5.99,1.26 -3.92,-0.95 -5.49,-4.94 -6.96,-8.24 1.48,-0.06 3.39,0.22 4.33,-1.24 1.09,-1.72 0.46,-3.91 -0.83,-5.32 z"
       inkscape:connector-curvature="0"
       style="fill:#4c413d" />
    <path
       id="path124"
       d="m -564.55524,201.70039 c -0.16,-1.64 0.38,-1.86 1.62,-0.65 -0.41,0.16 -1.22,0.49 -1.62,0.65 z"
       inkscape:connector-curvature="0"
       style="fill:#471001" />
    <path
       id="path126"
       d="m -564.55524,201.70039 c 0.4,-0.16 1.21,-0.49 1.62,-0.65 0.49,0.06 1.47,0.18 1.97,0.24 -1.31,5.21 -1.29,10.93 0.99,15.88 2.64,6.14 8.29,10.81 14.76,12.44 7.57,2.11 16.22,-0.29 21.63,-5.98 5.37,-5.3 7.55,-13.48 5.78,-20.78 0.39,-0.27 1.17,-0.83 1.56,-1.1 4.71,1.94 9.56,3.7 13.87,6.46 1.92,1.98 3.95,4.63 2.78,7.55 -1.66,3.49 -5.17,5.6 -8.4,7.48 -10.79,5.62 -22.87,9.58 -35.18,8.69 -8.4,0 -16.33,-2.99 -24.53,-4.28 -5.82,-1.27 -11.61,-3.97 -15.66,-8.43 -1.76,-1.69 -2.11,-4.75 -0.5,-6.64 2.76,-3.72 7.05,-5.73 11.01,-7.9 1.36,-0.43 2.7,-0.97 4,-1.59 1.43,-0.47 2.86,-0.95 4.3,-1.39 z"
       inkscape:connector-curvature="0"
       style="fill:#ffffff" />
    <path
       id="path128"
       d="m -550.58524,202.71039 c 0.95,-1.88 3.25,-1.68 5,-1.42 1.29,1.41 1.92,3.6 0.83,5.32 -0.94,1.46 -2.85,1.18 -4.33,1.24 -1.5,-1.22 -2.56,-3.29 -1.5,-5.14 z"
       inkscape:connector-curvature="0"
       style="fill:#fdfdfd" />
    <path
       id="path130"
       d="m -519.60524,202.38039 c 1.04,-0.43 2.21,-1.31 3.36,-0.63 -0.39,0.27 -1.17,0.83 -1.56,1.1 1.77,7.3 -0.41,15.48 -5.78,20.78 -5.41,5.69 -14.06,8.09 -21.63,5.98 -6.47,-1.63 -12.12,-6.3 -14.76,-12.44 -2.28,-4.95 -2.3,-10.67 -0.99,-15.88 0.23,0.69 0.7,2.07 0.93,2.76 -1.1,6.6 0.59,13.74 5.23,18.67 6.08,6.31 16.16,7.78 24.09,4.37 9.17,-3.82 14.45,-15.33 11.11,-24.71 z"
       inkscape:connector-curvature="0"
       style="fill:#240000" />
    <path
       id="path132"
       d="m -572.85524,204.68039 c 0.14,-2.16 2.46,-3.42 4,-1.59 -1.3,0.62 -2.64,1.16 -4,1.59 z"
       inkscape:connector-curvature="0"
       style="fill:#4e190d" />
    <path
       id="path134"
       d="m -673.87524,209.26039 c 0.5,0.55 0.5,0.55 0,0 z"
       inkscape:connector-curvature="0"
       style="fill:#182742" />
    <path
       id="path136"
       d="m -533.85524,210.68039 c 1.7,-0.95 3.41,-2.45 5.51,-1.8 2.88,1.29 4.25,5.43 1.71,7.71 -2.73,3.05 -8.3,0.27 -7.61,-3.76 l 0.16,-1.18 z"
       inkscape:connector-curvature="0"
       style="fill:#ffffff" />
    <path
       id="path138"
       d="m -124.12524,223.20039 c 2.56,-5.57 7.5,-9.42 10.71,-14.55 1.11,10.33 -0.64,20.74 0.73,31.07 0.94,9.28 1.71,19.13 -1.87,27.98 -1.51,4.31 -5.97,6.17 -9.55,8.43 -5.2,3.33 -10.55,6.65 -14.67,11.33 -1.06,1.02 -2,2.31 -3.42,2.84 -2.03,-0.69 -2,-2.99 -2.28,-4.72 1.59,-0.16 3.55,0.31 4.73,-1.1 3.28,-3.14 1.76,-8.73 5.27,-11.73 3.66,-3.55 9.68,-2.95 13.05,-6.92 4.24,-4.57 7.14,-12.07 3.31,-17.74 -2.3,-4.16 -7.02,-6.33 -9.23,-10.48 0.03,-4.96 0.8,-10.01 3.22,-14.41 z"
       inkscape:connector-curvature="0"
       style="fill:#fab994" />
    <path
       id="path140"
       d="m -652.59524,244.66039 c 1.5,-11.68 1.72,-23.52 3.71,-35.15 1.58,7.09 0.65,14.39 0.69,21.58 -2.19,24.77 -1.24,49.8 2.62,74.36 0.61,3.12 0.52,6.32 -0.36,9.39 -1.74,-7.52 -3.72,-15.01 -4.97,-22.62 -0.43,-4.87 -0.8,-9.75 -1.69,-14.55 -0.48,-10.99 -0.41,-22.01 0,-33.01 z"
       inkscape:connector-curvature="0"
       style="fill:#fcba95" />
    <path
       id="path142"
       d="m -536.13524,214.83039 c -0.2,-1.68 -0.23,-4.76 2.28,-4.15 l -0.23,0.97 c -0.89,0.84 -0.49,3.3 -2.05,3.18 z"
       inkscape:connector-curvature="0"
       style="fill:#38251c" />
    <path
       id="path144"
       d="m -93.92524,217.38039 c -0.22,-1.92 -0.19,-3.82 0.25,-5.69 1.19,5.34 -0.32,10.7 -1,16 -1.05,7 -0.15,14.09 -0.9,21.11 -0.81,8.4 -0.38,16.85 -0.83,25.26 -1.64,13.02 -2.12,26.29 -5.71,38.99 -2.63,8.82 -7.4,17.7 -15.73,22.27 -9.76,5.24 -22.3,5.58 -32.09,0.29 -0.81,4.71 -1.57,9.43 -2.46,14.13 -3.02,14 -4.37,28.3 -7.87,42.2 -1.44,4.62 -1.15,9.57 -2.88,14.12 -1.81,9.24 -4.58,18.24 -7.35,27.22 -1.85,5.72 -4.51,11.12 -6.42,16.82 -1.28,3.96 -3.65,7.5 -4.64,11.57 -1.09,5.06 -4.04,9.42 -5.93,14.2 -11.07,23.28 -24.58,45.38 -39.88,66.12 -15.76,21.27 -33.42,41.05 -51.6,60.26 -8.13,8.22 -15.88,16.93 -25.22,23.83 -26.41,19.94 -59.06,31.14 -92.03,32.76 -7.62,0.95 -15.35,1.1 -22.97,0.06 -17.67,-0.89 -34.73,-6.1 -51.48,-11.42 -14.4,-6.17 -27.35,-15.45 -38.24,-26.68 -11.28,-10.85 -21.07,-23.13 -30.25,-35.77 -8.02,-11.4 -16.11,-22.76 -23.12,-34.83 -18.37,-30.79 -34.43,-62.97 -47.87,-96.21 -1.65,-3.76 -1.6,-7.98 -3.27,-11.73 -1.31,-3.9 -3.81,-7.4 -4.38,-11.54 -0.88,-5.38 -3.32,-10.33 -4.7,-15.58 -0.42,-2.12 -2,-3.58 -3.56,-4.91 0.74,-0.91 0.71,-1.99 0.31,-3.03 -4.59,-15.98 -8.91,-32.05 -12.81,-48.22 -0.33,-1.34 -0.78,-2.69 -1.68,-3.76 -9.58,-11.21 -15.49,-25.53 -16.51,-40.25 -2.28,-18.06 -9.53,-34.93 -15.61,-51.93 -4.96,-14.56 -0.81,-30.61 6.49,-43.63 -0.1,1.42 -0.22,2.84 -0.37,4.26 -6.33,13.22 -9.41,29.17 -2.9,42.94 6.24,16.96 13.09,34.06 14.63,52.25 1.01,9.35 4.54,18.26 9.29,26.32 1.33,2.18 2.49,4.64 4.74,6.04 -5.2,-20.95 -9.87,-42.04 -14.48,-63.13 0.99,1.65 2.05,3.56 4.05,4.13 1.25,7.61 3.23,15.1 4.97,22.62 8.25,36.71 17.19,73.32 28.36,109.26 6.16,20.01 14.24,39.36 22.99,58.35 17.63,37.67 37.7,74.44 62.8,107.7 9.39,12.65 19.95,24.44 31.61,35.04 13.7,12.55 30.61,21.29 48.52,26.1 29.67,7.99 61.45,7.1 91.01,-0.97 28.6,-7.78 55.46,-23.13 75.15,-45.48 30.38,-31.41 59.23,-64.82 81.12,-102.82 11.57,-19.97 21.43,-40.94 29.43,-62.58 4.1,-10.19 6.98,-20.8 9.3,-31.52 7.86,-35.55 13.58,-71.54 19.06,-107.52 0.74,0.09 2.23,0.29 2.98,0.38 -1.27,7.45 -2.32,14.94 -3.46,22.41 -0.73,3.92 -1.47,7.85 -1.82,11.84 5.2,1.77 10.62,3.15 16.16,2.75 6.5,-0.12 12.88,-2.48 18.07,-6.36 4.52,-3.61 7.29,-8.93 9.41,-14.21 3.89,-10.63 5.21,-21.99 6.05,-33.21 3.04,-22 0.29,-44.39 4.22,-66.31 0.27,-0.08 0.79,-0.24 1.05,-0.31 z"
       inkscape:connector-curvature="0"
       style="fill:#000000" />
    <path
       id="path146"
       d="m -128.85524,222.09039 c 0.78,-1.61 1.84,-3.06 2.99,-4.44 -0.12,0.57 -0.36,1.69 -0.48,2.26 -1.57,5.74 -2.36,11.82 -1,17.7 2.21,4.15 6.93,6.32 9.23,10.48 3.83,5.67 0.93,13.17 -3.31,17.74 -3.37,3.97 -9.39,3.37 -13.05,6.92 -3.51,3 -1.99,8.59 -5.27,11.73 -1.18,1.41 -3.14,0.94 -4.73,1.1 0.68,-7.59 1.93,-15.35 5.65,-22.1 1.18,-2.1 1.79,-4.47 1.81,-6.87 0.09,-6.7 0.67,-13.43 2.48,-19.91 1.77,0.32 3.56,0.66 5.35,1 -0.55,-5.23 1.08,-10.42 0.33,-15.61 z"
       inkscape:connector-curvature="0"
       style="fill:#df9e7a" />
    <path
       id="path148"
       d="m -126.34524,219.91039 c 0.73,1.09 1.47,2.19 2.22,3.29 -2.42,4.4 -3.19,9.45 -3.22,14.41 -1.36,-5.88 -0.57,-11.96 1,-17.7 z"
       inkscape:connector-curvature="0"
       style="fill:#222222" />
    <path
       id="path150"
       d="m -604.78524,221.33039 c 0.35,-0.1 1.06,-0.31 1.41,-0.42 0.22,0.28 0.65,0.84 0.87,1.12 -0.57,0.01 -1.72,0.04 -2.29,0.05 z"
       inkscape:connector-curvature="0"
       style="fill:#502e32" />
    <path
       id="path152"
       d="m -128.85524,222.09039 c 0.75,5.19 -0.88,10.38 -0.33,15.61 -1.79,-0.34 -3.58,-0.68 -5.35,-1 1.34,-5.06 3.4,-9.9 5.68,-14.61 z"
       inkscape:connector-curvature="0"
       style="fill:#fbba94" />
    <path
       id="path154"
       d="m -669.13524,266.61039 c -6.51,-13.77 -3.43,-29.72 2.9,-42.94 0.16,0.25 0.5,0.76 0.67,1.01 -0.12,6.97 -0.19,13.94 0.21,20.9 0.39,6.33 0.91,12.65 1.6,18.96 0.72,-6.55 0.64,-13.17 1.7,-19.68 0.54,7.06 0.36,14.2 1.74,21.19 0.92,6.28 3.07,12.28 4.39,18.47 -4.28,-3.86 -7.16,-8.94 -9.58,-14.1 -0.91,-1.53 -1.35,-4.02 -3.63,-3.81 z"
       inkscape:connector-curvature="0"
       style="fill:#fab994" />
    <path
       id="path156"
       d="m -665.56524,224.68039 c 1.67,1.71 1.35,4.17 1.4,6.36 -0.19,4.85 0.58,9.88 -1.19,14.54 -0.4,-6.96 -0.33,-13.93 -0.21,-20.9 z"
       inkscape:connector-curvature="0"
       style="fill:#4d4031" />
    <path
       id="path158"
       d="m -258.48524,235.69039 c 4.06,-1.28 7.68,-3.63 11.73,-4.95 -1.95,3.22 -4.93,5.61 -7.86,7.88 -12.11,8.66 -27.44,12.8 -42.25,11.11 -13.17,-0.94 -25.82,-5.48 -37.46,-11.54 15.61,1.88 31.36,4.71 47.12,3 6.22,-0.31 12.49,-0.89 18.43,-2.92 3.39,-1.01 6.92,-1.46 10.29,-2.58 z"
       inkscape:connector-curvature="0"
       style="fill:#eeac87" />
    <path
       id="path160"
       d="m -653.26524,243.27039 c 0.17,0.35 0.5,1.05 0.67,1.39 -0.41,11 -0.48,22.02 0,33.01 -0.18,0.32 -0.53,0.97 -0.7,1.3 -0.14,-11.9 -0.18,-23.8 0.03,-35.7 z"
       inkscape:connector-curvature="0"
       style="fill:#000000" />
    <path
       id="path162"
       d="m -595.27524,243.17039 c 8.19,6.95 19.1,10.13 29.77,9.08 8.1,0.57 15.97,-1.68 23.67,-3.87 5.06,-1.47 9.76,-3.95 14.88,-5.26 -4.19,3.75 -9.24,6.33 -14.15,8.99 -8.55,4.19 -17.64,7.83 -27.26,8.25 -11.39,0.65 -23.12,-6.25 -26.91,-17.19 z"
       inkscape:connector-curvature="0"
       style="fill:#eeac87" />
    <path
       id="path164"
       d="m -669.13524,266.61039 c 2.28,-0.21 2.72,2.28 3.63,3.81 2.42,5.16 5.3,10.24 9.58,14.1 0.29,1.19 0.62,2.38 0.97,3.57 4.61,21.09 9.28,42.18 14.48,63.13 -2.25,-1.4 -3.41,-3.86 -4.74,-6.04 -4.75,-8.06 -8.28,-16.97 -9.29,-26.32 -1.54,-18.19 -8.39,-35.29 -14.63,-52.25 z"
       inkscape:connector-curvature="0"
       style="fill:#ffc9a5" />
    <path
       id="path166"
       d="m -366.12524,318.14039 c 11.89,17.26 32.53,25.24 46.22,40.72 4.63,5.9 8.37,12.47 11.74,19.16 0.75,1.62 1.84,3.26 1.54,5.14 -10.72,-13.6 -24.86,-24.37 -40.39,-31.93 -0.28,5.71 0.91,13.3 -4.49,17.03 1.77,-8.72 -0.88,-17.74 -5.36,-25.23 1.49,3.98 2.99,8.04 3.22,12.34 -1.11,-1.27 -1.96,-2.73 -2.58,-4.27 -4.58,-10.52 -8.55,-21.54 -9.9,-32.96 z"
       inkscape:connector-curvature="0"
       style="fill:#fab994" />
    <path
       id="path168"
       d="m -148.88524,335.03039 c 0.35,-3.99 1.09,-7.92 1.82,-11.84 1.67,1.96 3.12,4.1 4.53,6.28 2.29,3.78 6.73,5.31 9.81,8.31 -5.54,0.4 -10.96,-0.98 -16.16,-2.75 z"
       inkscape:connector-curvature="0"
       style="fill:#fab994" />
    <path
       id="path170"
       d="m -507.98524,340.28039 c 2.76,-3.91 4.83,-8.47 8.71,-11.44 2.49,5.24 3.69,12.29 0.18,17.32 l -0.7,0.17 c -2.16,0.29 -2.87,2.74 -3.88,4.33 -3.49,6.37 -3.95,14.31 -0.8,20.91 -1.45,-0.41 -2.88,-0.92 -4.38,-1.09 -11.61,9.04 -16.84,23.4 -22.12,36.59 -0.27,-4.09 0.89,-8.04 1.68,-12 3.88,-19.3 10.94,-38.04 21.31,-54.79 z"
       inkscape:connector-curvature="0"
       style="fill:#fab994" />
    <path
       id="path172"
       d="m -356.86524,343.03039 c 4.48,7.49 7.13,16.51 5.36,25.23 -2.21,6.3 -8.21,10.34 -14.41,12.1 1.09,-1.92 3.2,-2.84 4.86,-4.15 3.12,-2.17 5.27,-5.47 6.5,-9.03 1.38,-3.77 1.25,-7.88 0.91,-11.81 -0.23,-4.3 -1.73,-8.36 -3.22,-12.34 z"
       inkscape:connector-curvature="0"
       style="fill:#cc8863" />
    <path
       id="path174"
       d="m -503.67524,350.66039 c 1.01,-1.59 1.72,-4.04 3.88,-4.33 -4.35,8.1 -6.9,17.81 -3.7,26.78 -0.24,-0.39 -0.73,-1.15 -0.98,-1.54 -3.15,-6.6 -2.69,-14.54 0.8,-20.91 z"
       inkscape:connector-curvature="0"
       style="fill:#cc8863" />
    <path
       id="path178"
       d="m -421.49524,376.81039 c 8.11,-2.89 14.31,-10.19 23.28,-10.81 11.66,-1.62 22.43,5.22 34.04,4.04 3.43,-0.11 6.28,-2.3 9.62,-2.86 -1.23,3.56 -3.38,6.86 -6.5,9.03 -1.66,1.31 -3.77,2.23 -4.86,4.15 l -0.2,0.31 c -10.65,5.24 -22.43,7.49 -33.74,10.81 -5.84,1.03 -11.67,3.22 -17.66,2.31 7.18,-2.64 13.43,-7.26 20.55,-10.02 8.59,-1.65 17.05,-4.04 25.2,-7.23 -1.21,0 -2.42,0.01 -3.62,0.03 -1.91,-0.33 -3.82,-0.81 -5.76,-0.65 -8.06,0.68 -16.14,2.78 -23,7.18 -9,5.57 -18.23,11.66 -29.07,12.61 1.79,0.09 3.57,0.16 5.37,0.24 -6.43,2.86 -13.62,0.03 -20.25,-0.71 -12.22,-1.52 -24.02,-5.26 -35.47,-9.67 -2.17,-0.96 -4.66,-1.85 -5.73,-4.16 0.75,0.18 2.26,0.54 3.01,0.72 3.86,0.94 7.83,0.37 11.75,0.48 2.93,0.71 5.58,2.27 8.43,3.25 -4.5,-3.52 -9.75,-6.12 -15.32,-7.43 -5.6,-1.01 -11.33,-0.67 -16.97,-1.26 -0.46,-0.18 -1.38,-0.53 -1.83,-0.7 6.93,0.43 13.14,-3.41 20.03,-3.32 4.53,-0.08 8.6,2.26 12.96,3.14 10.11,2.35 20.84,2.81 31.01,0.49 4.61,-0.93 8.69,-3.37 13.15,-4.77 -2.62,4.21 -7.64,5.7 -11.21,8.89 4.58,-0.1 8.63,-2.45 12.79,-4.09 z"
       inkscape:connector-curvature="0"
       style="fill:#fab994" />
    <path
       id="path180"
       d="m -404.14524,383.10039 c 6.86,-4.4 14.94,-6.5 23,-7.18 1.94,-0.16 3.85,0.32 5.76,0.65 -7.63,2.26 -15.45,3.96 -22.68,7.39 l 1.1,-0.19 c -7.12,2.76 -13.37,7.38 -20.55,10.02 -3.35,1.08 -6.82,1.83 -10.33,2.16 -1.8,-0.08 -3.58,-0.15 -5.37,-0.24 10.84,-0.95 20.07,-7.04 29.07,-12.61 z"
       inkscape:connector-curvature="0"
       style="fill:#cd8a65" />
    <path
       id="path182"
       d="m -375.38524,376.57039 c 1.2,-0.02 2.41,-0.03 3.62,-0.03 -8.15,3.19 -16.61,5.58 -25.2,7.23 l -1.1,0.19 c 7.23,-3.43 15.05,-5.13 22.68,-7.39 z"
       inkscape:connector-curvature="0"
       style="fill:#222222" />
    <path
       id="path184"
       d="m -498.39524,377.17039 c 5.64,0.59 11.37,0.25 16.97,1.26 5.57,1.31 10.82,3.91 15.32,7.43 -2.85,-0.98 -5.5,-2.54 -8.43,-3.25 -3.92,-0.11 -7.89,0.46 -11.75,-0.48 3.23,0.48 6.53,0.42 9.68,-0.51 -4.8,-0.64 -9.64,-0.82 -14.48,-0.98 -2.53,-0.95 -4.87,-2.34 -7.31,-3.47 z"
       inkscape:connector-curvature="0"
       style="fill:#cf8b65" />
    <path
       id="path186"
       d="m -491.08524,380.64039 c 4.84,0.16 9.68,0.34 14.48,0.98 -3.15,0.93 -6.45,0.99 -9.68,0.51 -0.75,-0.18 -2.26,-0.54 -3.01,-0.72 -0.45,-0.19 -1.34,-0.58 -1.79,-0.77 z"
       inkscape:connector-curvature="0"
       style="fill:#62453d" />
    <path
       id="path188"
       d="m -316.05524,441.11039 c 3.6,-1.07 6.9,-3.87 10.86,-3.11 3.55,0.58 6.86,4.56 5.27,8.19 -2.54,7.26 -9.4,11.61 -15.48,15.7 -7.41,5.22 -14.72,10.58 -22.21,15.69 -1.12,0.85 -2.53,1.11 -3.85,1.46 7.87,-9.2 15.91,-18.27 23.93,-27.33 1.51,-1.69 2.54,-3.72 3.44,-5.77 -5.09,-0.98 -9.9,1.44 -14.83,2.27 -9.47,1.99 -19.39,1.16 -28.57,-1.75 4.38,-0.9 8.85,-0.3 13.28,-0.55 9.5,-0.71 19.03,-1.98 28.16,-4.8 z"
       inkscape:connector-curvature="0"
       style="fill:#fab994" />
    <path
       id="path190"
       d="m -179.83524,445.37039 c 1.02,-2.42 2.76,-4.41 4.89,-5.93 -8,21.64 -17.86,42.61 -29.43,62.58 -21.89,38 -50.74,71.41 -81.12,102.82 -19.69,22.35 -46.55,37.7 -75.15,45.48 -29.56,8.07 -61.34,8.96 -91.01,0.97 -17.91,-4.81 -34.82,-13.55 -48.52,-26.1 -11.66,-10.6 -22.22,-22.39 -31.61,-35.04 3.54,0.34 5.52,3.47 7.95,5.64 24.05,22.2 53.82,39.54 86.61,44.16 22.15,3.22 44.67,-0.26 66.2,-5.67 24.24,-6 47.24,-16.84 67.27,-31.77 22.37,-16.39 40.75,-37.34 59.13,-57.91 15.89,-18.78 30.33,-38.77 43.26,-59.69 7.68,-12.89 15.48,-25.78 21.53,-39.54 z"
       inkscape:connector-curvature="0"
       style="fill:#fab994" />
    <path
       id="path192"
       d="m -399.27524,445.92039 c 9.76,-2.65 20.03,-2.62 30.05,-1.91 2.75,0.42 5.78,0.29 8.29,1.62 1.44,1.32 2.95,2.56 4.48,3.8 -2.45,2.74 -6.56,1.64 -9.81,2.32 -16.39,1.3 -31.66,8.11 -47.96,9.87 -11.89,1.9 -24.02,1.18 -35.89,-0.49 -1.98,-0.27 -4.05,-0.57 -5.91,0.34 -6,-1.84 -12.5,-1.49 -18.23,1.03 -9.1,-0.74 -18.26,5.18 -27.15,1.22 1.14,-0.55 2.3,-1.05 3.48,-1.52 9.23,-3.51 18.35,-7.32 27.72,-10.44 4.86,-1.6 9.79,-3.36 14.97,-3.41 8.87,-0.51 17.24,3.4 26.07,3.38 10.27,0.33 20.23,-2.68 29.89,-5.81 z"
       inkscape:connector-curvature="0"
       style="fill:#e7947e" />
    <path
       id="path194"
       d="m -356.45524,449.43039 c -1.53,-1.24 -3.04,-2.48 -4.48,-3.8 0.86,0.21 2.58,0.62 3.44,0.83 9.18,2.91 19.1,3.74 28.57,1.75 4.93,-0.83 9.74,-3.25 14.83,-2.27 -0.9,2.05 -1.93,4.08 -3.44,5.77 -8.02,9.06 -16.06,18.13 -23.93,27.33 -2.02,2.3 -4.18,4.47 -6.32,6.67 0.01,-2.2 1.36,-3.99 2.45,-5.78 2.53,-3.98 4.89,-8.07 7.02,-12.28 -5.41,-2.63 -11.09,1.17 -16.44,2.27 4.07,-3.1 8.43,-7.3 8.2,-12.84 0.04,-2.48 -2.08,-5.1 -4.71,-4.7 -6.26,0.76 -12.76,4.18 -15.21,10.29 -0.27,-2.86 -1.35,-5.99 -4.29,-7.05 -7.49,-2.74 -16.42,2.2 -18.04,10.05 -0.84,-1.71 -1.62,-3.69 -3.51,-4.46 -2.49,-1.42 -5.3,-0.2 -7.87,0.25 -5.92,1.43 -12.04,1.58 -18.01,2.62 -3.19,0.66 -4.53,3.95 -5.42,6.72 -3.39,-5.17 -9.71,-6.88 -15.53,-7.31 -4.41,-0.19 -9.28,-1.19 -13.23,1.33 -1.15,-1.19 -2.35,-2.36 -3.65,-3.35 1.86,-0.91 3.93,-0.61 5.91,-0.34 11.87,1.67 24,2.39 35.89,0.49 16.3,-1.76 31.57,-8.57 47.96,-9.87 3.25,-0.68 7.36,0.42 9.81,-2.32 z"
       inkscape:connector-curvature="0"
       style="fill:#c0715d" />
    <path
       id="path196"
       d="m -366.47524,462.67039 c 2.45,-6.11 8.95,-9.53 15.21,-10.29 2.63,-0.4 4.75,2.22 4.71,4.7 0.23,5.54 -4.13,9.74 -8.2,12.84 -2.9,1.56 -6.1,2.45 -9.41,2.29 -1.54,-0.53 -2.78,-1.61 -4.04,-2.57 -1.9,3.13 -4.15,6.04 -6.87,8.5 -1.56,0.73 -3.08,1.52 -4.62,2.27 -3.66,0.53 -7.69,0.02 -10.06,-3.12 -2.08,3.38 -4.8,6.36 -8.26,8.38 -2.77,0.91 -5.62,1.55 -8.44,2.26 -5.48,0.06 -11.02,-0.72 -15.9,-3.34 -3.3,1.93 -6.9,3.38 -10.76,3.6 -0.34,-0.01 -1.03,-0.02 -1.37,-0.03 -6.46,-0.69 -13.64,-2.62 -17.52,-8.26 -2.11,-2.88 -1.99,-6.57 -1.58,-9.93 -2.21,3.2 -4.93,6.12 -8.57,7.68 -2.84,-1.06 -5.56,-2.41 -8.06,-4.13 -1.93,1.71 -4.14,4.12 -7.01,3.02 -3.25,-1.55 -7.13,-5.61 -4.87,-9.36 2.29,-2.03 5.23,-3.12 7.84,-4.68 5.73,-2.52 12.23,-2.87 18.23,-1.03 1.3,0.99 2.5,2.16 3.65,3.35 3.95,-2.52 8.82,-1.52 13.23,-1.33 5.82,0.43 12.14,2.14 15.53,7.31 0.89,-2.77 2.23,-6.06 5.42,-6.72 5.97,-1.04 12.09,-1.19 18.01,-2.62 2.57,-0.45 5.38,-1.67 7.87,-0.25 1.89,0.77 2.67,2.75 3.51,4.46 1.62,-7.85 10.55,-12.79 18.04,-10.05 2.94,1.06 4.02,4.19 4.29,7.05 z"
       inkscape:connector-curvature="0"
       style="fill:#ffffff" />
    <path
       id="path198"
       d="m -525.87524,462.39039 c 4.63,-1.79 9.78,-1.94 14.63,-1.02 4.4,0.81 8.88,0.38 13.32,0.83 -1.18,0.47 -2.34,0.97 -3.48,1.52 -2.31,0.91 -6.12,3.26 -3.28,5.91 4.21,3.79 8.62,7.42 11.91,12.11 -4.84,-1.23 -9.05,-5.19 -14.31,-4.26 -5.93,0.7 -12.09,0.27 -17.73,-1.75 -3.56,-1.17 -6,-4.97 -5.54,-8.68 0.24,-2.38 2.44,-3.86 4.48,-4.66 z"
       inkscape:connector-curvature="0"
       style="fill:#fab994" />
    <path
       id="path200"
       d="m -501.40524,463.72039 c 8.89,3.96 18.05,-1.96 27.15,-1.22 -2.61,1.56 -5.55,2.65 -7.84,4.68 -2.26,3.75 1.62,7.81 4.87,9.36 2.87,1.1 5.08,-1.31 7.01,-3.02 2.5,1.72 5.22,3.07 8.06,4.13 3.64,-1.56 6.36,-4.48 8.57,-7.68 -0.41,3.36 -0.53,7.05 1.58,9.93 3.88,5.64 11.06,7.57 17.52,8.26 -5.22,1.61 -10.51,-0.51 -15.74,-0.98 -7.45,-0.96 -15.48,-4.67 -22.72,-0.93 -4.23,2.19 -3.5,7.78 -1.78,11.41 1.27,3.65 4.71,6.35 5.25,10.22 -9.67,-6.9 -15.27,-17.64 -23.3,-26.14 -3.29,-4.69 -7.7,-8.32 -11.91,-12.11 -2.84,-2.65 0.97,-5 3.28,-5.91 z"
       inkscape:connector-curvature="0"
       style="fill:#c0715d" />
    <path
       id="path202"
       d="m -354.75524,469.92039 c 5.35,-1.1 11.03,-4.9 16.44,-2.27 -2.13,4.21 -4.49,8.3 -7.02,12.28 -1.09,1.79 -2.44,3.58 -2.45,5.78 l -0.05,0.41 c -4.91,5.17 -9.92,10.26 -15.18,15.08 -6.87,6.44 -15.59,10.37 -24.24,13.79 -17.56,6.7 -37.05,9.8 -55.58,5.61 -9.71,-2.11 -18.82,-6.81 -26.64,-12.72 -0.54,-3.87 -3.98,-6.57 -5.25,-10.22 -1.72,-3.63 -2.45,-9.22 1.78,-11.41 7.24,-3.74 15.27,-0.03 22.72,0.93 5.23,0.47 10.52,2.59 15.74,0.98 0.34,0.01 1.03,0.02 1.37,0.03 3.73,1.81 7.95,1.27 11.96,1.34 4.92,-0.12 10.02,0.27 14.7,-1.6 2.82,-0.71 5.67,-1.35 8.44,-2.26 1.95,0.3 3.87,-0.19 5.71,-0.83 4.21,-1.45 8.64,-2.35 12.61,-4.43 1.54,-0.75 3.06,-1.54 4.62,-2.27 4.93,-0.68 9.29,-3.14 13.89,-4.85 -1,-0.36 -1.99,-0.72 -2.98,-1.08 3.31,0.16 6.51,-0.73 9.41,-2.29 z"
       inkscape:connector-curvature="0"
       style="fill:#e7947e" />
    <path
       id="path204"
       d="m -375.07524,478.14039 c 2.72,-2.46 4.97,-5.37 6.87,-8.5 1.26,0.96 2.5,2.04 4.04,2.57 0.99,0.36 1.98,0.72 2.98,1.08 -4.6,1.71 -8.96,4.17 -13.89,4.85 z"
       inkscape:connector-curvature="0"
       style="fill:#c17462" />
    <path
       id="path206"
       d="m -398.01524,485.67039 c 3.46,-2.02 6.18,-5 8.26,-8.38 2.37,3.14 6.4,3.65 10.06,3.12 -3.97,2.08 -8.4,2.98 -12.61,4.43 -1.84,0.64 -3.76,1.13 -5.71,0.83 z"
       inkscape:connector-curvature="0"
       style="fill:#c0725f" />
    <path
       id="path208"
       d="m -433.11524,488.19039 c 3.86,-0.22 7.46,-1.67 10.76,-3.6 4.88,2.62 10.42,3.4 15.9,3.34 -4.68,1.87 -9.78,1.48 -14.7,1.6 -4.01,-0.07 -8.23,0.47 -11.96,-1.34 z"
       inkscape:connector-curvature="0"
       style="fill:#c17563" />
    <path
       id="path210"
       d="m -382.62524,493.65039 c 4.81,-2.71 9.43,-7.32 15.39,-6.5 0.7,4.91 -3.63,8.04 -6.63,11.17 -11.37,11.57 -26.54,21.33 -43.33,20.89 -13.75,0.53 -27.63,-3.46 -39.03,-11.16 -4.08,-3.14 -7.96,-7.06 -9.75,-11.98 0.86,-3.57 5.44,-2.07 7.82,-1 23.51,11.27 52.76,12.2 75.53,-1.42 z"
       inkscape:connector-curvature="0"
       style="fill:#efa185" />
    <path
       id="path212"
       d="m -399.60524,528.62039 c 5.74,-1.54 10.84,-4.72 16.48,-6.5 -4.39,4.18 -9.96,6.82 -15.02,10.08 -4.37,2.88 -9.37,4.46 -14.06,6.68 11.76,0.36 23.28,-3.28 33.93,-7.98 3.87,-1.64 7.13,-4.42 11.11,-5.81 -5.63,5.93 -12.83,10.21 -20.02,13.99 -13.01,6.84 -28.98,9.42 -42.91,3.84 -6.86,-2.86 -13.51,-6.91 -18.23,-12.75 16.09,2.94 32.96,3.33 48.72,-1.55 z"
       inkscape:connector-curvature="0"
       style="fill:#fab994" />
  </g>
</svg>
