<?xml version="1.0" standalone="no"?>
<!DOCTYPE svg PUBLIC "-//W3C//DTD SVG 20010904//EN"
 "http://www.w3.org/TR/2001/REC-SVG-20010904/DTD/svg10.dtd">
<svg version="1.0" xmlns="http://www.w3.org/2000/svg"
 width="700.000000pt" height="700.000000pt" viewBox="0 0 700.000000 700.000000"
 preserveAspectRatio="xMidYMid meet">
<metadata>
Created by potrace 1.11, written by Peter Selinger 2001-2013
</metadata>
<g transform="translate(0.000000,700.000000) scale(0.100000,-0.100000)"
fill="#000000" stroke="none">
<path d="M3855 6879 c-33 -5 -204 -8 -380 -7 l-320 1 -160 -52 c-88 -29 -195
-59 -237 -66 -85 -15 -129 -34 -170 -73 -16 -14 -28 -23 -28 -19 0 4 20 52 45
108 26 56 44 103 42 106 -3 2 -21 -27 -42 -64 -93 -171 -172 -263 -279 -327
-33 -20 -55 -36 -50 -36 6 0 35 15 65 33 84 51 87 51 39 7 -71 -65 -126 -97
-218 -126 -92 -30 -82 -22 -223 -174 l-50 -55 33 60 32 60 -63 -67 c-86 -92
-147 -135 -234 -164 -72 -24 -174 -80 -165 -90 3 -2 22 3 42 11 63 27 64 11 3
-48 -79 -78 -44 -72 42 7 l33 31 -15 -30 c-19 -37 -72 -92 -112 -117 -38 -23
-11 -25 42 -3 36 15 36 15 18 -5 -26 -29 -96 -60 -135 -60 l-34 0 22 -22 c34
-35 115 -32 171 5 56 37 49 14 -8 -27 -36 -26 -52 -31 -99 -31 -32 0 -66 4
-77 9 -13 6 -9 -3 15 -28 23 -25 46 -38 72 -43 66 -10 57 -26 -12 -21 -57 4
-66 8 -98 42 -31 35 -34 42 -28 82 3 24 14 56 23 71 10 15 12 24 5 19 -7 -4
-24 -29 -37 -56 -33 -64 -32 -121 0 -180 l25 -45 -29 32 c-35 38 -54 97 -45
144 7 36 43 113 76 164 15 22 10 20 -16 -10 -61 -67 -97 -139 -103 -203 -4
-50 -2 -62 21 -94 14 -21 22 -38 18 -38 -18 0 -55 35 -68 64 l-13 31 -1 -33
c0 -67 54 -122 122 -122 21 0 21 -1 -8 -31 -29 -31 -68 -55 -114 -70 -19 -7
-14 -8 20 -5 25 2 54 7 64 12 19 7 19 7 0 -25 -10 -18 -37 -54 -59 -79 -26
-30 -32 -41 -18 -33 12 6 25 16 28 21 3 5 16 15 28 21 l21 12 -18 -29 c-10
-16 -53 -62 -95 -102 -62 -60 -69 -69 -37 -51 36 21 38 21 28 2 -6 -11 -18
-26 -27 -33 -9 -8 -26 -32 -37 -54 l-21 -41 38 37 c21 20 64 50 94 67 37 20
66 44 84 73 20 30 27 35 22 18 -11 -40 -31 -65 -82 -106 -65 -52 -72 -58 -50
-50 11 3 31 9 45 12 24 4 23 3 -8 -15 -19 -10 -51 -36 -70 -57 -19 -21 -26
-31 -15 -22 31 25 102 48 149 48 l41 -1 -27 -15 c-38 -20 -35 -24 15 -18 51 6
77 -7 58 -30 -20 -24 -94 -56 -132 -57 -33 0 -33 -1 -9 -10 14 -6 49 -9 79 -6
46 3 51 2 36 -9 -22 -17 -96 -28 -132 -21 l-28 6 30 -14 c17 -8 59 -15 95 -16
l65 -1 -40 -13 c-22 -8 -70 -14 -106 -14 -56 -1 -72 3 -105 25 l-39 26 24 -26
c31 -33 88 -54 176 -65 l70 -8 -75 -2 c-70 -2 -73 -3 -50 -16 37 -20 109 -28
160 -16 24 5 45 9 47 8 8 -9 -74 -50 -114 -57 -47 -9 -47 -9 17 -6 36 2 73 7
83 11 16 7 16 5 -2 -26 -11 -19 -22 -54 -25 -79 l-6 -45 13 37 c6 20 22 49 35
65 16 20 21 22 16 8 -20 -55 -15 -103 21 -207 31 -90 37 -121 40 -209 3 -114
22 -188 77 -305 l33 -69 0 -190 c0 -157 -3 -197 -17 -228 -19 -41 -11 -48 18
-16 17 19 19 19 25 2 14 -35 9 -81 -16 -135 -13 -29 -29 -84 -34 -120 -11 -77
-3 -117 53 -276 37 -103 75 -255 76 -302 1 -34 40 -127 88 -208 31 -53 50
-106 86 -247 26 -99 51 -189 57 -200 5 -11 31 -88 58 -170 102 -313 308 -725
509 -1015 184 -264 344 -425 507 -507 51 -26 238 -79 329 -93 219 -34 509 8
711 104 179 84 279 167 492 401 321 355 504 639 644 999 77 196 120 374 193
797 l6 36 53 -14 c110 -29 216 17 267 117 42 82 64 231 75 495 3 83 8 182 11
220 4 52 2 66 -6 53 -6 -9 -15 -111 -20 -225 -15 -323 -35 -465 -74 -542 -21
-39 -77 -87 -122 -101 -36 -12 -158 -9 -171 4 -5 5 15 149 33 234 3 15 0 22
-10 22 -9 0 -17 -13 -21 -32 -3 -18 -21 -132 -41 -253 -53 -326 -100 -544
-150 -695 -49 -149 -181 -425 -269 -565 -135 -215 -327 -448 -555 -675 -115
-115 -163 -156 -234 -198 -215 -126 -443 -180 -706 -169 -209 9 -365 56 -509
151 -198 132 -453 471 -675 897 -182 351 -280 616 -390 1061 -135 542 -129
512 -133 735 -3 158 0 241 16 383 12 99 21 205 21 236 l0 55 55 24 c30 14 89
45 130 71 102 61 127 70 222 82 95 11 166 0 407 -62 153 -40 185 -44 146 -20
-17 10 -18 13 -5 9 11 -4 49 -9 85 -12 56 -5 67 -3 83 15 17 19 17 22 2 58 -9
22 -29 56 -46 77 -37 46 -26 48 26 5 39 -33 39 -28 1 25 -42 58 -165 117 -271
131 l-50 7 63 -32 c34 -18 60 -34 58 -36 -2 -2 -30 3 -62 11 -173 43 -341 47
-528 11 -36 -7 -38 -6 -31 14 7 22 7 22 -27 5 -18 -9 -44 -24 -58 -34 -14 -9
-30 -15 -37 -13 -6 2 -10 -4 -9 -14 2 -11 -16 -34 -43 -59 -44 -40 -90 -104
-75 -104 4 0 16 7 26 17 32 29 19 0 -21 -45 l-37 -43 -14 273 c-12 250 -15
269 -26 223 -12 -53 -14 -47 -17 57 -1 31 1 54 5 52 4 -3 10 12 13 33 4 21 9
46 12 56 10 39 -7 14 -22 -30 l-15 -48 6 50 c3 28 16 77 29 109 27 67 15 62
-21 -10 -14 -27 -22 -38 -19 -24 3 14 22 57 41 95 31 64 32 67 9 40 -22 -26
-21 -19 12 44 41 81 121 175 174 205 l34 18 -35 -30 c-19 -16 -44 -45 -54 -63
l-19 -34 39 37 c46 44 130 84 204 98 29 5 104 10 167 10 115 0 236 19 303 46
20 9 30 10 24 4 -7 -7 -40 -22 -75 -35 -70 -26 -70 -33 1 -11 70 22 152 60
216 102 88 58 87 58 80 46 -3 -6 -34 -32 -69 -58 -72 -55 -176 -105 -273 -133
-38 -11 -60 -20 -48 -20 32 -1 203 53 259 81 70 36 115 71 228 177 87 80 141
121 162 121 4 0 -7 -12 -25 -26 -30 -26 -60 -72 -60 -94 0 -5 16 8 36 29 46
52 97 75 219 101 209 45 442 139 665 269 79 46 165 82 116 49 -10 -7 -66 -48
-125 -90 -58 -43 -137 -92 -176 -108 -81 -36 -41 -31 55 7 75 29 153 72 228
124 81 57 171 89 266 95 l81 5 -55 -19 c-30 -10 -77 -31 -103 -46 -51 -30 -64
-45 -19 -23 52 27 144 48 230 53 l87 5 -61 -25 c-54 -21 -144 -73 -144 -82 0
-1 25 9 55 22 81 38 209 57 293 46 50 -7 57 -10 28 -11 -88 -3 -226 -53 -348
-127 -33 -20 -79 -43 -102 -50 -23 -7 -32 -13 -20 -13 35 -1 117 27 229 79
131 62 198 80 285 79 l65 -1 -72 -18 c-104 -26 -106 -28 -23 -23 85 6 164 -12
215 -48 28 -20 29 -21 5 -15 -14 4 -50 9 -80 11 l-55 5 43 -16 c70 -26 176
-146 197 -224 4 -17 -2 -11 -20 18 -14 23 -28 42 -30 42 -2 0 4 -19 14 -42 11
-24 22 -65 26 -93 4 -27 17 -72 30 -100 l24 -50 -25 30 -25 30 10 -27 c6 -15
20 -47 32 -70 l21 -43 -27 25 c-15 14 -40 45 -56 70 -38 60 -37 29 1 -37 18
-31 52 -69 84 -93 51 -39 106 -99 106 -117 0 -4 -7 3 -16 15 -16 23 -92 67
-101 59 -2 -3 5 -8 16 -12 26 -8 55 -48 71 -100 7 -22 23 -55 37 -72 17 -23
19 -31 8 -27 -9 4 -27 23 -41 43 -21 29 -24 31 -19 11 11 -38 31 -74 61 -109
l26 -32 -20 -47 c-17 -42 -37 -142 -28 -142 2 0 11 23 21 52 9 29 24 61 32 73
15 19 15 19 8 0 -21 -59 -27 -96 -22 -153 4 -51 12 -74 40 -115 42 -63 52 -83
61 -122 l6 -30 -30 35 c-35 42 -36 40 -9 -30 17 -45 21 -81 23 -192 2 -131 3
-138 33 -197 17 -33 27 -63 22 -66 -5 -4 -9 -44 -9 -91 0 -47 -5 -94 -10 -105
-6 -10 -8 -19 -5 -19 3 0 15 19 25 43 l20 42 0 -32 c0 -37 -25 -108 -49 -138
-16 -19 -15 -19 9 -4 14 9 35 34 47 55 34 58 28 15 -6 -50 -17 -31 -28 -56
-26 -56 2 0 20 14 39 31 l35 30 6 -38 c10 -60 27 -127 37 -140 5 -7 1 -34 -12
-70 -12 -32 -25 -80 -29 -106 -7 -40 -6 -47 7 -45 8 2 22 22 30 46 12 38 21
46 66 66 40 18 57 32 70 61 22 46 15 78 -29 126 -31 35 -32 39 -24 84 9 49 39
107 82 158 l24 29 27 -106 c14 -58 26 -121 26 -141 0 -19 5 -35 10 -35 6 0 10
19 10 42 0 23 7 80 16 127 17 93 14 153 -12 204 -16 30 -16 31 0 18 27 -22 46
-67 46 -106 0 -25 4 -34 11 -29 8 5 10 35 5 103 l-7 95 36 -42 c20 -23 40 -42
44 -42 4 0 -5 25 -21 56 -15 31 -28 68 -28 82 0 21 5 17 25 -24 14 -28 37 -61
51 -75 l25 -24 -25 45 c-14 25 -34 81 -46 125 -12 44 -35 122 -52 174 -30 91
-31 98 -23 200 5 58 7 149 6 203 -2 66 4 127 18 196 21 99 21 101 2 159 -12
37 -22 107 -26 184 -9 166 -26 263 -70 389 -49 141 -60 180 -80 285 -40 220
-178 470 -373 677 -115 122 -240 218 -448 342 -110 66 -280 174 -380 241 -193
131 -257 160 -382 175 l-67 7 61 2 c90 2 166 -17 263 -65 81 -40 84 -41 51
-13 -108 92 -300 128 -515 98z m-2021 -3223 c-6 -15 -34 -31 -34 -19 0 5 30
32 37 33 1 0 0 -6 -3 -14z m3720 -480 c-4 -36 -11 -56 -20 -56 -7 0 -15 3 -17
8 -6 8 33 115 39 109 3 -2 2 -30 -2 -61z m-3889 -214 c3 -3 6 15 6 39 1 39 2
37 10 -21 5 -36 40 -200 79 -365 38 -164 67 -301 65 -303 -7 -7 -44 59 -65
115 -10 28 -26 92 -34 140 -7 49 -40 167 -71 262 -64 191 -67 234 -28 343 l18
51 7 -128 c4 -70 10 -130 13 -133z"/>
<path d="M1379 5803 c-13 -16 -12 -17 4 -4 16 13 21 21 13 21 -2 0 -10 -8 -17
-17z"/>
<path d="M3658 5263 c7 -3 16 -2 19 1 4 3 -2 6 -13 5 -11 0 -14 -3 -6 -6z"/>
<path d="M2458 4833 c7 -3 16 -2 19 1 4 3 -2 6 -13 5 -11 0 -14 -3 -6 -6z"/>
<path d="M2393 4783 c9 -2 23 -2 30 0 6 3 -1 5 -18 5 -16 0 -22 -2 -12 -5z"/>
<path d="M2308 4773 c6 -2 18 -2 25 0 6 3 1 5 -13 5 -14 0 -19 -2 -12 -5z"/>
<path d="M4660 4112 c-41 -3 -50 -6 -35 -12 12 -5 -31 -9 -110 -10 -71 0 -161
-5 -200 -10 -40 -5 -76 -5 -86 0 -36 20 -334 -28 -454 -72 -44 -16 -76 -38
-117 -79 -38 -38 -58 -52 -58 -41 0 15 -2 15 -10 2 -5 -8 -10 -32 -10 -52 0
-43 24 -74 66 -84 48 -12 157 2 204 26 25 13 57 25 73 26 15 2 42 11 60 19 30
15 31 15 12 0 -19 -16 -17 -17 33 -10 29 4 97 18 150 31 94 23 152 32 371 54
73 7 108 7 117 -1 7 -6 27 -7 48 -3 20 3 44 3 53 -2 13 -6 4 -10 -32 -14 -49
-7 -49 -7 20 -9 39 -1 108 -10 155 -21 142 -33 220 -23 220 26 0 54 -62 125
-148 168 -74 37 -197 76 -234 74 -18 -1 -58 -4 -88 -6z"/>
<path d="M2006 3995 c-25 -20 -46 -41 -46 -47 0 -12 13 -3 73 49 50 44 32 42
-27 -2z"/>
<path d="M4215 3630 c-77 -12 -190 -47 -235 -72 -19 -10 -26 -16 -15 -12 277
98 509 92 714 -16 42 -22 65 -31 51 -20 -41 32 -161 88 -229 105 -79 20 -207
27 -286 15z"/>
<path d="M3621 3508 c-60 -81 -87 -180 -95 -349 l-5 -104 14 115 c21 175 52
276 111 358 9 12 14 22 11 22 -3 0 -19 -19 -36 -42z"/>
<path d="M2344 3530 c-98 -15 -180 -63 -211 -125 -14 -29 -13 -28 23 9 84 84
223 119 398 98 56 -7 115 -14 131 -17 l30 -5 -30 10 c-74 25 -266 42 -341 30z"/>
<path d="M3024 3482 c61 -93 90 -192 106 -368 8 -95 9 -93 6 51 -4 183 -21
237 -97 318 l-50 52 35 -53z"/>
<path d="M4230 3510 c-119 -15 -253 -67 -358 -139 -34 -22 -68 -51 -77 -63
-15 -22 -14 -24 12 -35 33 -14 73 -17 73 -4 0 5 -9 11 -21 14 -55 15 33 89
180 153 l76 34 5 -53 c7 -63 28 -105 69 -135 29 -21 36 -22 107 -13 106 13
144 52 144 151 0 49 1 51 23 45 54 -16 127 -55 127 -68 0 -17 -24 -38 -65 -60
-44 -24 -24 -20 52 8 39 15 78 23 90 20 34 -8 28 8 -17 48 -98 89 -237 121
-420 97z m10 -66 c0 -19 -28 -30 -42 -16 -8 8 -8 15 1 26 14 17 41 10 41 -10z
m128 -46 c16 -16 15 -23 -4 -42 -12 -12 -20 -13 -35 -6 -10 6 -19 16 -19 23 0
16 20 37 35 37 6 0 16 -5 23 -12z"/>
<path d="M2405 3437 c-85 -22 -160 -63 -222 -120 -33 -30 -68 -59 -79 -65 -32
-18 -8 -25 45 -13 49 10 54 9 117 -24 36 -19 78 -35 92 -34 22 0 17 5 -28 26
-68 31 -90 50 -90 78 0 28 22 48 90 79 76 35 83 34 76 -11 -8 -45 24 -116 65
-146 101 -73 244 -6 257 122 2 28 9 51 14 51 35 0 140 -67 159 -101 10 -19 6
-25 -46 -64 -19 -14 -18 -14 15 -9 44 8 120 40 120 51 -1 27 -161 117 -282
159 -88 31 -227 40 -303 21z m123 -70 c4 -21 -27 -35 -38 -17 -12 19 0 42 19
38 9 -2 17 -11 19 -21z m137 -67 c0 -18 -6 -26 -23 -28 -13 -2 -25 3 -28 12
-10 26 4 48 28 44 17 -2 23 -10 23 -28z"/>
<path d="M2825 2297 c-8 -20 -14 -58 -14 -84 l1 -48 9 57 c4 32 13 67 19 79 7
11 9 23 6 26 -3 4 -13 -10 -21 -30z"/>
<path d="M3917 2278 c7 -66 -4 -105 -46 -151 l-36 -40 33 17 c65 33 85 98 57
181 l-14 40 6 -47z"/>
<path d="M3680 2113 c-49 -8 -94 -26 -154 -61 -34 -20 -86 -46 -116 -59 -30
-12 -50 -23 -45 -23 26 0 116 30 170 57 33 17 76 34 95 37 52 11 134 37 145
47 9 9 -47 10 -95 2z"/>
<path d="M2910 2091 c28 -15 160 -35 160 -24 0 10 -77 32 -131 37 l-64 7 35
-20z"/>
<path d="M3535 1593 c-80 -22 -101 -24 -190 -17 -198 15 -216 12 -370 -46 -77
-29 -147 -59 -155 -66 -12 -12 -6 -22 46 -77 33 -34 84 -91 113 -126 125 -153
257 -210 464 -198 196 10 327 70 475 216 108 107 282 305 282 322 0 7 -13 9
-37 5 -105 -17 -192 -18 -261 -2 -107 24 -256 20 -367 -11z m433 -66 c3 -22
-6 -37 -37 -69 -38 -37 -44 -40 -82 -35 -37 5 -44 2 -71 -29 -32 -36 -70 -44
-108 -24 -15 8 -21 6 -29 -9 -6 -10 -30 -29 -54 -40 -39 -19 -50 -20 -98 -10
-74 15 -69 15 -116 1 -80 -24 -183 29 -183 94 l0 27 -26 -27 c-31 -30 -31 -30
-63 -12 -18 10 -31 11 -52 2 -25 -9 -32 -7 -51 12 -29 28 -18 49 42 80 49 25
85 28 127 10 15 -6 60 -12 100 -13 51 -2 81 -8 106 -23 33 -19 35 -19 53 -2
12 11 52 23 107 32 76 13 90 13 108 0 19 -13 22 -12 36 8 35 49 123 58 140 15
5 -14 8 -14 27 3 34 31 59 42 91 39 25 -2 31 -7 33 -30z"/>
</g>
</svg>
